SplineFontDB: 3.0
FontName: OxygenSans-Regular
FullName: OxygenSans Regular
FamilyName: OxygenSans
Weight: Normal
ItalicAngle: 0
UnderlinePosition: 0
UnderlineWidth: 0
Ascent: 1638
Descent: 410
UFOAscent: 1838
UFODescent: -534
LayerCount: 2
Layer: 0 0 "Back"  1
Layer: 1 0 "Fore"  0
OS2Version: 0
OS2_WeightWidthSlopeOnly: 0
OS2_UseTypoMetrics: 0
CreationTime: 1365019410
ModificationTime: 1365355018
PfmFamily: 0
TTFWeight: 430
TTFWidth: 5
LineGap: 0
VLineGap: 0
OS2TypoAscent: 1623
OS2TypoAOffset: 0
OS2TypoDescent: 67
OS2TypoDOffset: 0
OS2TypoLinegap: 0
OS2WinAscent: 1600
OS2WinAOffset: 0
OS2WinDescent: 448
OS2WinDOffset: 0
HheadAscent: 0
HheadAOffset: 1
HheadDescent: 0
HheadDOffset: 1
OS2SubXSize: -1403
OS2SubYSize: -1295
OS2SubXOff: 0
OS2SubYOff: -161
OS2SupXSize: -1403
OS2SupYSize: -1295
OS2SupXOff: 0
OS2SupYOff: -755
OS2StrikeYSize: -53
OS2StrikeYPos: -643
OS2Vendor: 'PfEd'
DEI: 91125
Encoding: iso8859-5
Compacted: 1
UnicodeInterp: none
NameList: AGL For New Fonts
DisplaySize: -72
AntiAlias: 1
FitToEm: 1
WinInfo: 60 20 8
BeginPrivate: 7
BlueFuzz 1 0
BlueScale 7 0.01585
BlueShift 1 3
BlueValues 23 [-10 6 406 416 530 550]
OtherBlues 10 [-176 -66]
StemSnapH 27 [8 64 72 74 77 79 81 87 92]
StemSnapV 25 [76 92 98 98 101 102 115]
EndPrivate
Grid
-2048 147 m 4
 4096 147 l 4
-2048 1293 m 4
 4096 1293 l 4
-2048 1437 m 4
 4096 1437 l 4
  Named: "capHeight" 
-2048 948 m 4
 4096 948 l 4
-2048 1060 m 4
 4096 1060 l 4
  Named: "xheight" 
EndSplineSet
BeginChars: 675 611

StartChar: .notdef
Encoding: 256 -1 0
Width: 962
VWidth: 0
Flags: W
HStem: 1 99<196 787> 955 99<196 787>
VStem: 98 98<100 955> 787 98<100 955>
LayerCount: 2
Fore
SplineSet
196 100 m 1
 787 100 l 1
 787 955 l 1
 196 955 l 1
 196 100 l 1
98 1 m 1
 98 1054 l 1
 885 1054 l 1
 885 1 l 1
 98 1 l 1
EndSplineSet
EndChar

StartChar: A
Encoding: 65 65 1
Width: 1371
VWidth: 0
Flags: W
LayerCount: 2
Fore
SplineSet
49 0 m 1
 248 0 l 1
 433 502 l 1
 360 449 l 1
 1019 449 l 1
 943 499 l 1
 1129 0 l 1
 1322 0 l 1
 793 1437 l 1
 579 1437 l 1
 49 0 l 1
439 525 m 1
 711 1322 l 1
 664 1323 l 1
 937 526 l 1
 980 582 l 1
 400 582 l 1
 439 525 l 1
EndSplineSet
EndChar

StartChar: AE
Encoding: 257 198 2
Width: 1939
VWidth: 0
Flags: W
LayerCount: 2
Fore
SplineSet
1171 0 m 1
 1849 0 l 1
 1832 148 l 1
 1237 148 l 1
 1306 90 l 1
 1178 724 l 1
 1131 669 l 1
 1747 669 l 1
 1728 815 l 1
 1103 815 l 1
 1172 759 l 1
 1055 1346 l 1
 1009 1291 l 1
 1760 1291 l 1
 1748 1437 l 1
 943 1437 l 1
 1171 0 l 1
EndSplineSet
Refer: 1 65 N 1.00005 4.15409e-06 0.165188 0.99995 3 0 2
EndChar

StartChar: B
Encoding: 66 66 14
Width: 1374
VWidth: 0
Flags: W
HStem: 0 147<719 950.767> 688 135<672 888.569> 1293 144<661 926.356>
VStem: 1020 186<907.363 1207.1> 1069 194<254.082 575.516>
LayerCount: 2
UndoRedoHistory
Layer: 1
Undoes
EndUndoes
Redoes
EndRedoes
EndUndoRedoHistory
Fore
SplineSet
202 0 m 1xf0
 751 0 l 2
 1093 0 1263 155 1263 408 c 0xe8
 1263 627 1117 743 894 782 c 1
 894 734 l 1
 1132 797 1206 913 1206 1083 c 0
 1206 1331 1030 1437 667 1437 c 2
 202 1437 l 1
 202 0 l 1xf0
344 147 m 1
 396 93 l 1
 396 741 l 1
 343 688 l 1
 672 688 l 2
 942 688 1069 619 1069 415 c 0
 1069 224 962 147 719 147 c 2
 344 147 l 1
342 823 m 1
 396 778 l 1
 396 1345 l 1
 344 1293 l 1
 661 1293 l 2
 905 1293 1020 1247 1020 1059 c 0xf0
 1020 871 903 823 717 823 c 2
 342 823 l 1
EndSplineSet
EndChar

StartChar: C
Encoding: 67 67 15
Width: 1309
VWidth: 0
Flags: W
HStem: -19 155<634.659 1101.4> 1303 153<626.081 1078.41>
VStem: 135 195<461.967 980.603>
LayerCount: 2
Fore
SplineSet
831 -19 m 0
 1015 -19 1156 36 1219 67 c 1
 1176 211 l 1
 1122 186 1001 136 851 136 c 0
 533 136 330 356 330 718 c 0
 330 1075 526 1303 839 1303 c 0
 956 1303 1078 1270 1166 1216 c 1
 1227 1344 l 1
 1132 1411 990 1456 823 1456 c 0
 415 1456 135 1171 135 723 c 0
 135 256 428 -19 831 -19 c 0
EndSplineSet
EndChar

StartChar: D
Encoding: 68 68 22
Width: 1540
VWidth: 0
Flags: W
HStem: 0 147<642 903.91> 1293 144<615 895.5>
VStem: 1213 193<459.772 986.693>
LayerCount: 2
Fore
SplineSet
396 86 m 1
 396 1351 l 1
 337 1293 l 1
 615 1293 l 2
 994 1293 1213 1130 1213 718 c 0
 1213 342 1020 147 642 147 c 2
 338 147 l 1
 396 86 l 1
202 0 m 1
 648 0 l 2
 1110 0 1406 250 1406 723 c 0
 1406 1220 1084 1437 620 1437 c 2
 202 1437 l 1
 202 0 l 1
EndSplineSet
EndChar

StartChar: Dcroat
Encoding: 276 272 24
Width: 1510
VWidth: 0
Flags: W
HStem: 0 147<642 903.91> 1293 144<615 895.5>
VStem: 1213 193<459.772 986.693>
LayerCount: 2
Fore
SplineSet
61 693 m 5
 578 693 l 5
 578 783 l 5
 61 783 l 5
 61 693 l 5
EndSplineSet
Refer: 22 68 N 1 0 0 1 0 0 2
EndChar

StartChar: Delta
Encoding: 277 916 25
Width: 1422
VWidth: 0
Flags: W
HStem: 0 150<331 1120>
LayerCount: 2
Fore
SplineSet
102 0 m 1
 635 1446 l 1
 810 1446 l 1
 1344 0 l 1
 102 0 l 1
331 150 m 1
 1120 150 l 1
 722 1262 l 1
 331 150 l 1
EndSplineSet
EndChar

StartChar: E
Encoding: 69 69 26
Width: 1183
VWidth: 0
Flags: W
LayerCount: 2
UndoRedoHistory
Layer: 0
Undoes
EndUndoes
Redoes
EndRedoes
EndUndoRedoHistory
UndoRedoHistory
Layer: 1
Undoes
EndUndoes
Redoes
EndRedoes
EndUndoRedoHistory
Fore
SplineSet
200 0 m 1
 1082 0 l 1
 1094 147 l 1
 336 147 l 1
 394 89 l 1
 394 728 l 1
 336 673 l 1
 1026 673 l 1
 1026 818 l 1
 336 818 l 1
 394 762 l 1
 394 1347 l 1
 337 1293 l 1
 1083 1293 l 1
 1090 1437 l 1
 200 1437 l 1
 200 0 l 1
EndSplineSet
EndChar

StartChar: Eng
Encoding: 286 330 35
Width: 1349
VWidth: 0
Flags: HW
LayerCount: 2
Fore
SplineSet
818 -316 m 0
 790 -316 742 -315 619 -303 c 1
 597 -161 l 1
 734 -169 751 -169 772 -169 c 0
 1046 -169 1068 -97 1068 166 c 2
 1068 969 l 2
 1068 1226 995 1313 783 1313 c 0
 567 1313 403 1190 311 1052 c 1
 311 0 l 1
 150 0 l 1
 147 1446 l 1
 295 1446 l 1
 312 1240 l 1
 492 1429 665 1469 834 1469 c 0
 1094 1469 1228 1295 1228 975 c 2
 1228 160 l 2
 1228 -138 1166 -316 818 -316 c 0
EndSplineSet
EndChar

StartChar: Eth
Encoding: 289 208 38
Width: 1512
VWidth: 0
Flags: HW
LayerCount: 2
Fore
SplineSet
659 797 m 1
 55 797 l 1
 55 673 l 1
 659 673 l 1
 659 797 l 1
EndSplineSet
Refer: 22 68 N 1 0 0 1 0 0 2
EndChar

StartChar: Euro
Encoding: 290 8364 39
Width: 1281
VWidth: 0
Flags: HW
LayerCount: 2
Fore
SplineSet
1198 66 m 1
 1112 21 990 -19 825 -19 c 0
 485 -19 212 181 145 560 c 1
 206 519 l 1
 16 519 l 1
 22 633 l 1
 196 633 l 1
 142 591 l 1
 139 620 135 693 135 723 c 0
 135 749 138 818 140 843 c 1
 195 800 l 1
 21 800 l 1
 27 911 l 1
 200 911 l 1
 141 865 l 1
 202 1251 470 1456 816 1456 c 0
 983 1456 1125 1411 1220 1344 c 1
 1156 1214 l 1
 1068 1268 949 1301 832 1301 c 0
 582 1301 394 1155 339 865 c 1
 279 911 l 1
 909 911 l 1
 902 800 l 1
 269 800 l 1
 335 843 l 1
 332 817 330 746 330 718 c 0
 330 689 333 618 336 591 c 1
 271 633 l 1
 902 633 l 1
 896 519 l 1
 285 519 l 1
 343 560 l 1
 402 276 586 136 850 136 c 0
 970 136 1072 168 1156 209 c 1
 1198 66 l 1
EndSplineSet
EndChar

StartChar: F
Encoding: 70 70 40
Width: 1116
VWidth: 0
Flags: HW
LayerCount: 2
Fore
SplineSet
202 0 m 1
 399 0 l 1
 399 711 l 1
 328 651 l 1
 996 651 l 1
 996 792 l 1
 322 792 l 1
 399 736 l 1
 399 1357 l 1
 320 1289 l 1
 1047 1289 l 1
 1057 1437 l 1
 202 1437 l 1
 202 0 l 1
EndSplineSet
EndChar

StartChar: G
Encoding: 71 71 41
Width: 1472
VWidth: 0
Flags: HW
LayerCount: 2
Fore
SplineSet
820 -19 m 0
 1016 -19 1171 15 1319 73 c 1
 1319 739 l 1
 827 739 l 1
 821 588 l 1
 1202 588 l 1
 1142 648 l 1
 1142 112 l 1
 1199 200 l 1
 1140 174 1024 136 848 136 c 0
 480 136 329 368 329 719 c 0
 329 1059 524 1304 854 1304 c 0
 1051 1304 1152 1243 1234 1199 c 1
 1281 1344 l 1
 1159 1425 1018 1456 849 1456 c 0
 417 1456 134 1151 134 717 c 0
 134 291 375 -19 820 -19 c 0
EndSplineSet
EndChar

StartChar: Gamma
Encoding: 291 915 42
Width: 1178
VWidth: 0
Flags: W
LayerCount: 2
Fore
SplineSet
200 0 m 5
 395 0 l 5
 395 1354 l 5
 338 1288 l 5
 1069 1288 l 5
 1079 1437 l 5
 200 1437 l 5
 200 0 l 5
EndSplineSet
EndChar

StartChar: H
Encoding: 72 72 48
Width: 1524
VWidth: 0
Flags: W
LayerCount: 2
Fore
SplineSet
200 0 m 1
 394 0 l 1
 394 721 l 1
 327 667 l 1
 1200 667 l 1
 1130 721 l 1
 1130 0 l 1
 1324 0 l 1
 1324 1437 l 1
 1130 1437 l 1
 1130 756 l 1
 1196 810 l 1
 327 810 l 1
 394 756 l 1
 394 1437 l 1
 200 1437 l 1
 200 0 l 1
EndSplineSet
EndChar

StartChar: Hbar
Encoding: 297 294 49
Width: 1531
VWidth: 0
Flags: HW
LayerCount: 2
Fore
SplineSet
214 0 m 1
 214 1108 l 1
 126 1108 l 1
 126 1209 l 1
 214 1209 l 1
 214 1445 l 1
 378 1445 l 1
 378 1209 l 1
 1177 1209 l 1
 1177 1445 l 1
 1342 1445 l 1
 1342 1209 l 1
 1430 1209 l 1
 1430 1108 l 1
 1342 1108 l 1
 1342 0 l 1
 1177 0 l 1
 1177 672 l 1
 378 672 l 1
 378 0 l 1
 214 0 l 1
378 819 m 1
 1177 819 l 1
 1177 1108 l 1
 378 1108 l 1
 378 819 l 1
EndSplineSet
EndChar

StartChar: I
Encoding: 73 73 51
Width: 800
VWidth: 0
Flags: W
VStem: 116 568
LayerCount: 2
Fore
SplineSet
116 1437 m 1
 116 1320 l 1
 359 1320 l 1
 304 1368 l 1
 304 63 l 1
 362 117 l 1
 116 117 l 1
 116 0 l 1
 684 0 l 1
 684 117 l 1
 437 117 l 1
 498 64 l 1
 498 1368 l 1
 440 1320 l 1
 684 1320 l 1
 684 1437 l 1
 116 1437 l 1
EndSplineSet
EndChar

StartChar: J
Encoding: 74 74 62
Width: 780
VWidth: 0
Flags: W
HStem: -177 156<114 288.697>
VStem: 386 194<85.9457 294>
LayerCount: 2
Back
SplineSet
31 -177 m 5
 145 -177 l 6
 455 -177 581 10 581 284 c 6
 581 1437 l 5
 386 1437 l 5
 386 294 l 6
 386 114 340 -21 114 -21 c 6
 19 -21 l 5
 31 -177 l 5
EndSplineSet
UndoRedoHistory
Layer: 1
Undoes
EndUndoes
Redoes
EndRedoes
EndUndoRedoHistory
Fore
SplineSet
31 -177 m 5
 145 -177 l 6
 455 -177 580 10 580 284 c 6
 580 1437 l 5
 386 1437 l 5
 386 294 l 6
 386 114 340 -21 114 -21 c 6
 19 -21 l 5
 31 -177 l 5
EndSplineSet
EndChar

StartChar: K
Encoding: 75 75 64
Width: 1332
VWidth: 0
Flags: W
LayerCount: 2
UndoRedoHistory
Layer: 1
Undoes
EndUndoes
Redoes
EndRedoes
EndUndoRedoHistory
Fore
SplineSet
202 0 m 1
 396 0 l 1
 396 647 l 1
 347 534 l 1
 576 742 l 1
 491 748 l 1
 1066 0 l 1
 1292 0 l 1
 631 853 l 1
 631 752 l 1
 1261 1437 l 1
 1035 1437 l 1
 344 701 l 1
 396 691 l 1
 396 1437 l 1
 202 1437 l 1
 202 0 l 1
EndSplineSet
EndChar

StartChar: L
Encoding: 76 76 66
Width: 1125
VWidth: 0
Flags: W
LayerCount: 2
Fore
SplineSet
202 0 m 1
 1059 0 l 1
 1065 147 l 1
 323 147 l 1
 396 72 l 1
 396 1437 l 1
 202 1437 l 1
 202 0 l 1
EndSplineSet
EndChar

StartChar: Lambda
Encoding: 312 923 68
Width: 1422
VWidth: 0
Flags: HW
LayerCount: 2
Fore
SplineSet
103 0 m 1
 634 1445 l 1
 812 1445 l 1
 1344 0 l 1
 1170 0 l 1
 723 1262 l 1
 282 0 l 1
 103 0 l 1
EndSplineSet
EndChar

StartChar: M
Encoding: 77 77 73
Width: 1839
VWidth: 0
Flags: W
VStem: 182 184<0 686.694> 212 167<750.306 1267> 343 36<1235.2 1267> 1462 164<772.457 1267> 1462 41<1235.77 1267> 1475 182<0 664.543>
LayerCount: 2
Fore
SplineSet
182 0 m 1x80
 366 0 l 1x80
 379 845 l 1
 379 1267 l 1x40
 343 1267 l 1
 838 169 l 1
 999 169 l 1
 1503 1267 l 1x28
 1462 1267 l 1
 1462 849 l 1x10
 1475 0 l 1
 1657 0 l 1x04
 1626 1437 l 1
 1405 1437 l 1
 883 291 l 1
 959 291 l 1
 440 1437 l 1
 212 1437 l 1x50
 182 0 l 1x80
EndSplineSet
EndChar

StartChar: N
Encoding: 78 78 75
Width: 1577
VWidth: 0
Flags: W
VStem: 202 183<713 1157.42>
LayerCount: 2
Fore
SplineSet
202 0 m 1
 385 0 l 1
 385 713 l 1
 367 1271 l 1
 322 1258 l 1
 1172 0 l 1
 1375 0 l 1
 1375 1437 l 1
 1193 1437 l 1
 1193 660 l 1
 1206 166 l 1
 1251 169 l 1
 398 1437 l 1
 202 1437 l 1
 202 0 l 1
EndSplineSet
EndChar

StartChar: O
Encoding: 79 79 80
Width: 1651
VWidth: 0
Flags: W
HStem: -19 153<612.881 1041.06> 1302 154<616.866 1038.31>
VStem: 135 195<441.927 987.562> 1322 194<442.891 986.482>
LayerCount: 2
Fore
SplineSet
827 134 m 0
 493 134 330 373 330 711 c 0
 330 1063 502 1302 828 1302 c 0
 1154 1302 1322 1061 1322 711 c 0
 1322 373 1161 134 827 134 c 0
828 -19 m 0
 1266 -19 1516 274 1516 710 c 0
 1516 1162 1256 1456 829 1456 c 0
 395 1456 135 1164 135 711 c 0
 135 268 386 -19 828 -19 c 0
EndSplineSet
EndChar

StartChar: OE
Encoding: 322 338 81
Width: 1976
VWidth: 0
Flags: W
HStem: -19 153<617.325 991.786> 1302 154<621.076 992.043>
VStem: 135 195<441.927 987.562>
LayerCount: 2
Fore
SplineSet
993 0 m 1
 1875 0 l 1
 1887 147 l 1
 1129 147 l 1
 1187 89 l 1
 1187 728 l 1
 1129 673 l 1
 1819 673 l 1
 1819 818 l 1
 1129 818 l 1
 1187 762 l 1
 1187 1347 l 1
 1130 1293 l 1
 1876 1293 l 1
 1883 1437 l 1
 993 1437 l 1
 993 0 l 1
1065 1421.62396387 m 1
 993.549946799 1444.17567498 914.633242581 1456 829 1456 c 0
 395 1456 135 1164 135 711 c 0
 135 268 386 -19 828 -19 c 0
 923.068193119 -19 1009.27951955 -5.19647904833 1086 20.876741971 c 1
 1086 197.498887729 l 1
 1015.73330819 156.515686643 929.515636916 134 827 134 c 0
 493 134 330 373 330 711 c 0
 330 1063 502 1302 828 1302 c 0
 919.528513829 1302 998.602286444 1283.00257827 1065 1247.92913037 c 1
 1065 1421.62396387 l 1
EndSplineSet
EndChar

StartChar: Omega
Encoding: 331 937 90
Width: 1592
VWidth: 0
Flags: HW
LayerCount: 2
Fore
SplineSet
812 164 m 0
 1112 164 1271 392 1271 711 c 0
 1271 1040 1107 1267 812 1267 c 0
 517 1267 351 1041 351 711 c 0
 351 392 512 164 812 164 c 0
812 -20 m 0
 380 -20 118 264 118 713 c 0
 118 1170 385 1452 812 1452 c 0
 1234 1452 1505 1168 1505 712 c 0
 1505 267 1241 -20 812 -20 c 0
EndSplineSet
EndChar

StartChar: Oslash
Encoding: 332 216 91
Width: 1617
VWidth: 0
Flags: HW
LayerCount: 2
Fore
SplineSet
519 -229 m 1
 1242 1619 l 1
 1135 1659 l 1
 418 -194 l 1
 519 -229 l 1
EndSplineSet
Refer: 80 79 N 1 0 0 1 0 0 2
EndChar

StartChar: P
Encoding: 80 80 94
Width: 1273
VWidth: 0
Flags: W
HStem: 676 149<696 901.737> 1293 144<705 908.827>
VStem: 993 194<906.333 1213.18>
LayerCount: 2
Fore
SplineSet
202 0 m 1
 396 0 l 1
 396 734 l 1
 335 676 l 1
 703 676 l 2
 1051 676 1187 823 1187 1077 c 0
 1187 1346 983 1437 706 1437 c 2
 202 1437 l 1
 202 0 l 1
696 825 m 2
 335 825 l 1
 396 772 l 1
 396 1351 l 1
 335 1293 l 1
 705 1293 l 2
 884 1293 993 1240 993 1074 c 0
 993 891 914 825 696 825 c 2
EndSplineSet
EndChar

StartChar: Phi
Encoding: 335 934 95
Width: 1618
VWidth: 0
Flags: HW
LayerCount: 2
Fore
SplineSet
735 0 m 1
 735 165 l 1
 328 195 116 435 116 746 c 0
 116 1063 342 1285 735 1313 c 1
 735 1445 l 1
 905 1445 l 1
 905 1313 l 1
 1303 1286 1528 1064 1528 746 c 0
 1528 433 1315 193 905 165 c 1
 905 0 l 1
 735 0 l 1
735 313 m 1
 735 1166 l 1
 445 1139 298 977 298 746 c 0
 298 523 432 342 735 313 c 1
905 313 m 1
 1211 341 1346 522 1346 746 c 0
 1346 977 1200 1140 905 1166 c 1
 905 313 l 1
EndSplineSet
EndChar

StartChar: Pi
Encoding: 336 928 96
Width: 1397
VWidth: 0
Flags: HW
LayerCount: 2
Fore
SplineSet
145 0 m 1
 145 1445 l 1
 1278 1445 l 1
 1278 0 l 1
 1108 0 l 1
 1108 1299 l 1
 316 1299 l 1
 316 0 l 1
 145 0 l 1
EndSplineSet
EndChar

StartChar: Q
Encoding: 81 81 97
Width: 1650
VWidth: 0
Flags: HW
LayerCount: 2
Fore
SplineSet
1248 -439 m 1
 1359 -337 l 1
 1264 -240 1142 -68 1092 31 c 1
 933 -1 l 1
 1020 -168 1171 -371 1248 -439 c 1
EndSplineSet
Refer: 80 79 N 1 0 0 1 0 0 2
EndChar

StartChar: R
Encoding: 82 82 98
Width: 1414
VWidth: 0
Flags: HW
HStem: 722 96 1355 94
VStem: 1122 117
LayerCount: 2
Fore
SplineSet
202 0 m 1
 396 0 l 1
 396 718 l 1
 335 672 l 1
 890 672 l 1
 793 728 l 1
 916 442 l 1
 1104 0 l 1
 1306 0 l 1
 1083 498 l 1
 965 775 l 1
 953 687 l 1
 1135 729 1248 831 1248 1061 c 0
 1248 1327 1092 1437 786 1437 c 2
 202 1437 l 1
 202 0 l 1
396 755 m 1
 396 1349 l 1
 336 1293 l 1
 790 1293 l 2
 996 1293 1057 1209 1057 1058 c 0
 1057 880 1006 809 763 809 c 2
 335 809 l 1
 396 755 l 1
EndSplineSet
EndChar

StartChar: S
Encoding: 83 83 102
Width: 1213
VWidth: 0
Flags: W
HStem: -19 153<364.159 816.582> 1302 154<441.783 857.928>
VStem: 163 180<953.511 1214.9> 919 179<237.347 528.298>
LayerCount: 2
Fore
SplineSet
604 -19 m 0
 880 -19 1088 95 1098 380 c 0
 1106 625 959 713 744 792 c 1
 515 879 l 1
 387 928 343 971 343 1087 c 0
 343 1250 486 1302 641 1302 c 0
 798 1302 926 1229 982 1200 c 1
 1050 1336 l 1
 961 1398 809 1456 644 1456 c 0
 399 1456 163 1356 163 1078 c 0
 163 879 276 789 456 722 c 2
 695 634 l 1
 865 569 923 514 919 379 c 0
 913 203 806 134 611 134 c 0
 436 134 302 194 211 259 c 1
 147 117 l 1
 226 63 365 -19 604 -19 c 0
EndSplineSet
EndChar

StartChar: Sigma
Encoding: 345 931 108
Width: 1124
VWidth: 0
Flags: HW
LayerCount: 2
Fore
SplineSet
145 0 m 1
 145 1429 l 1
 1010 1429 l 1
 1003 1282 l 1
 324 1282 l 1
 324 813 l 1
 947 813 l 1
 947 668 l 1
 324 668 l 1
 324 148 l 1
 1010 148 l 1
 1002 0 l 1
 145 0 l 1
EndSplineSet
EndChar

StartChar: T
Encoding: 84 84 109
Width: 1164
VWidth: 0
Flags: W
LayerCount: 2
Fore
SplineSet
483 0 m 5
 678 0 l 5
 678 1354 l 5
 621 1288 l 5
 1110 1288 l 5
 1110 1437 l 5
 54 1437 l 5
 54 1288 l 5
 540 1288 l 5
 483 1353 l 5
 483 0 l 5
EndSplineSet
EndChar

StartChar: U
Encoding: 85 85 114
Width: 1491
VWidth: 0
Flags: HW
LayerCount: 2
Fore
SplineSet
746 -19 m 0
 1127 -19 1325 207 1325 524 c 2
 1325 1437 l 1
 1131 1437 l 1
 1131 532 l 2
 1131 273 999 136 746 136 c 0
 486 136 360 273 360 532 c 2
 360 1437 l 1
 166 1437 l 1
 166 526 l 2
 166 201 361 -19 746 -19 c 0
EndSplineSet
EndChar

StartChar: V
Encoding: 86 86 127
Width: 1382
VWidth: 0
Flags: HW
LayerCount: 2
Fore
SplineSet
600 0 m 1
 782 0 l 1
 1312 1437 l 1
 1111 1437 l 1
 799 539 l 1
 661 138 l 1
 724 138 l 1
 586 535 l 1
 273 1437 l 1
 70 1437 l 1
 600 0 l 1
EndSplineSet
EndChar

StartChar: W
Encoding: 87 87 128
Width: 2056
VWidth: 0
Flags: HW
LayerCount: 2
Fore
SplineSet
486 0 m 1
 670 0 l 1
 1056 1253 l 1
 1007 1253 l 1
 1381 0 l 1
 1568 0 l 1
 2002 1437 l 1
 1814 1437 l 1
 1453 178 l 1
 1493 178 l 1
 1121 1409 l 1
 937 1409 l 1
 562 177 l 1
 603 177 l 1
 241 1437 l 1
 55 1437 l 1
 486 0 l 1
EndSplineSet
EndChar

StartChar: X
Encoding: 88 88 133
Width: 1374
VWidth: 0
Flags: W
LayerCount: 2
Fore
SplineSet
117 0 m 1
 309 0 l 1
 701 607 l 1
 787 698 l 1
 1258 1437 l 1
 1063 1437 l 1
 694 845 l 1
 598 746 l 1
 117 0 l 1
1072 0 m 1
 1267 0 l 1
 315 1437 l 1
 121 1437 l 1
 1072 0 l 1
EndSplineSet
EndChar

StartChar: Y
Encoding: 89 89 134
Width: 1262
VWidth: 0
Flags: HW
LayerCount: 2
Fore
SplineSet
549 0 m 1
 736 0 l 1
 736 661 l 1
 691 495 l 1
 1205 1437 l 1
 1012 1437 l 1
 610 680 l 1
 674 680 l 1
 253 1437 l 1
 58 1437 l 1
 600 485 l 1
 549 659 l 1
 549 0 l 1
EndSplineSet
EndChar

StartChar: Z
Encoding: 90 90 139
Width: 1228
VWidth: 0
Flags: HW
LayerCount: 2
Fore
SplineSet
149 0 m 1
 1103 0 l 1
 1109 147 l 1
 310 147 l 1
 337 84 l 1
 1102 1306 l 1
 1096 1437 l 1
 178 1437 l 1
 178 1293 l 1
 953 1293 l 1
 917 1348 l 1
 149 132 l 1
 149 0 l 1
EndSplineSet
EndChar

StartChar: a
Encoding: 97 97 143
Width: 1132
VWidth: 0
Flags: W
HStem: -17 132<338.774 645.472> 515 117<393.584 643> 947 135<298.038 714.655>
VStem: 116 172<167.315 427.012> 792 178<698 868.035> 839 131<1 87.016>
LayerCount: 2
Fore
SplineSet
448 -17 m 0xf8
 585 -17 742 34 848 190 c 1
 805 205 l 1
 839 1 l 1
 970 1 l 1xf4
 970 698 l 2
 970 981 798 1082 556 1082 c 0
 433 1082 282 1047 173 995 c 1
 218 871 l 1
 319 918 451 947 554 947 c 0
 711 947 792 871 792 723 c 2
 792 602 l 1
 828 639 l 1
 594 632 l 1
 269 623 116 514 116 286 c 0
 116 87 258 -17 448 -17 c 0xf8
465 115 m 0
 372 115 288 170 288 287 c 0
 288 436 363 508 643 515 c 2
 822 520 l 1
 791 555 l 1
 791 236 l 1
 827 339 l 1
 754 198 614 115 465 115 c 0
EndSplineSet
EndChar

StartChar: acute
Encoding: 376 180 147
Width: 608
VWidth: 0
Flags: W
HStem: 1178 375
LayerCount: 2
Fore
SplineSet
121 1178 m 1
 227 1178 l 1
 522 1553 l 1
 301 1553 l 1
 121 1178 l 1
EndSplineSet
EndChar

StartChar: ae
Encoding: 378 230 149
Width: 1713
VWidth: 0
Flags: HW
HStem: -14 98 518 82 983 92
VStem: 126 119 817 117 817 82 1556 98
LayerCount: 2
Fore
SplineSet
431 -16 m 0
 604 -16 793 61 880 157 c 1
 957 45 1073 -19 1243 -19 c 0
 1404 -19 1507 18 1602 80 c 1
 1550 195 l 1
 1452 142 1370 115 1260 115 c 0
 1068 116 945 222 935 488 c 1
 1478 488 1622 584 1622 778 c 0
 1622 930 1512 1085 1246 1085 c 0
 1089 1085 928 1000 879 855 c 1
 855 1018 724 1085 548 1085 c 0
 410 1085 246 1044 156 993 c 1
 209 871 l 1
 292 912 435 951 547 951 c 1
 709 949 767 868 767 722 c 2
 767 609 l 1
 612 609 l 2
 280 609 108 524 108 302 c 0
 108 92 248 -16 431 -16 c 0
455 115 m 0
 346 115 275 173 275 303 c 0
 275 427 350 490 618 490 c 2
 769 490 l 1
 771 414 788 322 812 265 c 1
 726 178 572 115 455 115 c 0
938 606 m 1
 960 839 1089 959 1258 959 c 0
 1405 959 1481 880 1481 779 c 0
 1481 649 1328 606 938 606 c 1
EndSplineSet
EndChar

StartChar: ampersand
Encoding: 38 38 153
Width: 1424
VWidth: 0
Flags: HW
HStem: -19 96 1372 96
VStem: 135 121 312 105 917 110
LayerCount: 2
Fore
SplineSet
652 -18 m 0
 848 -18 927 18 1052 111 c 1
 1180 -18 l 1
 1335 45 l 1
 1165 219 l 1
 1232 289 1310 410 1348 495 c 1
 1225 576 l 1
 1190 497 1122 383 1068 326 c 1
 672 766 l 1
 857 855 1014 984 1014 1154 c 0
 1014 1354 861 1456 663 1456 c 0
 446 1456 282 1333 282 1140 c 0
 282 1014 343 903 445 794 c 1
 288 703 154 585 154 375 c 0
 154 127 339 -18 652 -18 c 0
662 121 m 0
 456 121 328 215 328 384 c 0
 328 520 411 621 533 692 c 1
 956 220 l 1
 871 151 797 121 662 121 c 0
587 865 m 1
 481 966 443 1057 443 1152 c 0
 443 1264 547 1327 666 1327 c 0
 788 1327 852 1268 852 1155 c 0
 852 1032 721 930 587 865 c 1
EndSplineSet
EndChar

StartChar: approxequal
Encoding: 383 8776 155
Width: 1228
VWidth: 0
Flags: HW
LayerCount: 2
Fore
SplineSet
124 457 m 1
 154 624 248 724 402 724 c 0
 492 724 576 682 654 637 c 0
 731 593 796 552 857 552 c 0
 942 552 996 614 1031 724 c 1
 1126 695 l 1
 1097 535 1022 428 854 428 c 0
 774 428 694 461 584 527 c 1
 518 569 460 599 402 599 c 0
 304 599 249 531 219 426 c 1
 124 457 l 1
121 534 m 1
 151 698 250 800 403 800 c 0
 489 800 564 764 654 710 c 0
 743 657 800 628 855 628 c 0
 940 628 994 689 1029 800 c 1
 1124 773 l 1
 1094 613 1017 507 853 507 c 0
 770 507 692 540 583 607 c 0
 517 649 458 677 400 677 c 0
 301 677 247 610 219 506 c 1
 121 534 l 1
EndSplineSet
EndChar

StartChar: asciicircum
Encoding: 94 94 158
Width: 1229
VWidth: 0
Flags: HW
LayerCount: 2
Fore
SplineSet
136 570 m 1
 565 1466 l 1
 662 1466 l 1
 1115 570 l 1
 974 570 l 1
 615 1290 l 1
 275 570 l 1
 136 570 l 1
EndSplineSet
EndChar

StartChar: asciitilde
Encoding: 126 126 159
Width: 1178
VWidth: 0
Flags: HW
LayerCount: 2
Fore
SplineSet
153 486 m 1
 105 587 l 1
 150 694 237 779 367 779 c 0
 447 779 507 756 604 713 c 1
 697 673 774 637 833 637 c 0
 913 637 990 704 1034 788 c 1
 1087 694 l 1
 1038 577 954 499 829 499 c 0
 757 499 685 527 603 564 c 0
 504 608 432 641 363 641 c 0
 276 641 198 570 153 486 c 1
EndSplineSet
EndChar

StartChar: asterisk
Encoding: 42 42 160
Width: 1158
VWidth: 0
Flags: HW
LayerCount: 2
Fore
SplineSet
391 551 m 1
 244 641 l 1
 484 963 l 1
 132 1044 l 1
 179 1209 l 1
 526 1063 l 1
 491 1460 l 1
 667 1460 l 1
 631 1063 l 1
 980 1209 l 1
 1027 1044 l 1
 670 963 l 1
 710 909 832 748 916 641 c 1
 864 609 822 583 770 551 c 1
 574 900 l 1
 391 551 l 1
EndSplineSet
EndChar

StartChar: at
Encoding: 64 64 161
Width: 1946
VWidth: 0
Flags: HW
LayerCount: 2
Fore
SplineSet
952 -183 m 0
 1146 -183 1332 -139 1463 -51 c 1
 1422 50 l 1
 1287 -27 1122 -69 955 -69 c 0
 548 -69 293 202 293 612 c 0
 293 1028 582 1358 1015 1358 c 0
 1424 1358 1664 1094 1664 760 c 0
 1664 502 1550 335 1411 335 c 0
 1324 335 1276 405 1276 496 c 0
 1276 621 1314 808 1342 1011 c 1
 1255 1048 1129 1077 1031 1077 c 0
 747 1077 588 836 588 577 c 0
 588 369 694 226 887 226 c 0
 1065 226 1169 400 1210 552 c 1
 1162 552 l 1
 1174 345 1252 234 1413 234 c 0
 1586 234 1789 410 1789 752 c 0
 1789 1197 1453 1475 1020 1475 c 0
 517 1475 155 1109 155 613 c 0
 155 116 475 -183 952 -183 c 0
903 333 m 0
 790 333 726 413 726 576 c 0
 726 779 844 975 1037 975 c 0
 1090 975 1211 952 1250 938 c 1
 1196 1018 l 1
 1192 980 1150 733 1145 696 c 0
 1116 496 1057 333 903 333 c 0
EndSplineSet
EndChar

StartChar: b
Encoding: 98 98 163
Width: 1245
VWidth: 0
Flags: W
HStem: -19 138<502.36 811.275> 944 138<505.298 815.584>
VStem: 170 182<284.771 787.794> 170 149<0 162.059> 953 181<279.662 783.354>
LayerCount: 2
Fore
SplineSet
681 -19 m 0xd8
 972 -19 1134 201 1134 530 c 0
 1134 858 983 1082 688 1082 c 0
 518 1082 382 978 318 848 c 1
 350 841 l 1
 352 1086 l 1
 352 1468 l 1xe8
 170 1455 l 1
 170 0 l 1
 319 0 l 1
 342 260 l 1
 295 251 l 1
 344 134 476 -19 681 -19 c 0xd8
657 119 m 0
 468 119 348 259 348 546 c 0
 348 792 452 944 665 944 c 0
 868 944 953 781 953 530 c 0
 953 272 858 119 657 119 c 0
EndSplineSet
EndChar

StartChar: backslash
Encoding: 92 92 164
Width: 912
VWidth: 0
Flags: HW
LayerCount: 2
Fore
SplineSet
655 -36 m 1
 123 1431 l 1
 269 1431 l 1
 800 -36 l 1
 655 -36 l 1
EndSplineSet
EndChar

StartChar: bar
Encoding: 124 124 165
Width: 375
VWidth: 0
Flags: HW
LayerCount: 2
Fore
SplineSet
127 -352 m 1
 127 1547 l 1
 263 1547 l 1
 263 -352 l 1
 127 -352 l 1
EndSplineSet
EndChar

StartChar: braceleft
Encoding: 123 123 166
Width: 758
VWidth: 0
Flags: HW
LayerCount: 2
Fore
SplineSet
640 -271 m 1
 401 -271 304 -161 304 59 c 2
 304 256 l 2
 304 423 280 532 95 534 c 1
 95 674 l 1
 279 674 304 785 304 950 c 2
 304 1187 l 2
 304 1386 420 1486 640 1487 c 1
 640 1352 l 1
 500 1350 457 1296 457 1133 c 2
 457 876 l 2
 456 730 409 651 279 600 c 1
 407 563 457 488 457 337 c 2
 457 80 l 2
 457 -79 497 -138 640 -140 c 1
 640 -271 l 1
EndSplineSet
EndChar

StartChar: braceright
Encoding: 125 125 167
Width: 758
VWidth: 0
Flags: HW
LayerCount: 2
Fore
SplineSet
109 -271 m 1
 109 -138 l 1
 249 -136 290 -84 290 80 c 2
 290 338 l 2
 290 461 334 553 469 611 c 1
 339 652 291 762 290 877 c 2
 290 1133 l 2
 290 1292 252 1353 109 1355 c 1
 109 1487 l 1
 348 1487 444 1377 444 1154 c 2
 444 954 l 2
 444 787 465 679 653 677 c 1
 653 538 l 1
 471 538 444 426 444 260 c 2
 444 27 l 2
 444 -172 332 -270 109 -271 c 1
EndSplineSet
EndChar

StartChar: bracketleft
Encoding: 91 91 168
Width: 686
VWidth: 0
Flags: HW
LayerCount: 2
Fore
SplineSet
194 -229 m 1
 194 1472 l 1
 631 1472 l 1
 631 1343 l 1
 356 1343 l 1
 356 -102 l 1
 631 -102 l 1
 631 -229 l 1
 194 -229 l 1
EndSplineSet
EndChar

StartChar: bracketright
Encoding: 93 93 169
Width: 688
VWidth: 0
Flags: HW
LayerCount: 2
Fore
SplineSet
75 -229 m 1
 75 -102 l 1
 351 -102 l 1
 351 1343 l 1
 75 1343 l 1
 75 1472 l 1
 512 1472 l 1
 512 -229 l 1
 75 -229 l 1
EndSplineSet
EndChar

StartChar: breve
Encoding: 387 728 170
Width: 720
VWidth: 0
Flags: W
HStem: 1258 108<254.838 461.42>
VStem: 119 113<1392.35 1494> 487 112<1392.35 1494>
LayerCount: 2
Fore
SplineSet
357 1258 m 0
 487 1258 599 1327 599 1494 c 1
 487 1494 l 1
 487 1402 427 1366 357 1366 c 0
 287 1366 232 1402 232 1494 c 1
 119 1494 l 1
 119 1327 228 1258 357 1258 c 0
EndSplineSet
EndChar

StartChar: brokenbar
Encoding: 388 166 171
Width: 389
VWidth: 0
Flags: HW
LayerCount: 2
Fore
SplineSet
134 -241 m 1
 134 445 l 1
 270 445 l 1
 270 -241 l 1
 134 -241 l 1
134 762 m 1
 134 1445 l 1
 270 1445 l 1
 270 762 l 1
 134 762 l 1
EndSplineSet
EndChar

StartChar: bullet
Encoding: 389 8226 172
Width: 836
VWidth: 0
Flags: HW
LayerCount: 2
Fore
SplineSet
428 402 m 0
 260 402 113 521 113 723 c 0
 113 927 264 1049 433 1049 c 0
 601 1049 750 931 750 728 c 0
 750 525 597 402 428 402 c 0
EndSplineSet
EndChar

StartChar: c
Encoding: 99 99 173
Width: 997
VWidth: 0
Flags: W
HStem: -19 140<467.758 840.253> 942 140<471.809 831.918>
VStem: 113 179<314.839 744.138>
LayerCount: 2
Fore
SplineSet
615 -19 m 0
 764 -19 863 27 901 56 c 1
 869 180 l 1
 812 148 726 119 636 121 c 0
 413 124 292 293 292 526 c 0
 292 784 437 942 637 942 c 0
 763 942 843 892 856 884 c 1
 905 1008 l 1
 871 1032 772 1082 617 1082 c 0
 328 1082 113 863 113 527 c 0
 113 202 310 -19 615 -19 c 0
EndSplineSet
EndChar

StartChar: caron
Encoding: 391 711 175
Width: 761
VWidth: 0
Flags: W
LayerCount: 2
Fore
SplineSet
271 1222 m 1
 458 1222 l 1
 653 1584 l 1
 521 1584 l 1
 361 1329 l 1
 217 1584 l 1
 86 1584 l 1
 271 1222 l 1
EndSplineSet
EndChar

StartChar: cedilla
Encoding: 396 184 180
Width: 566
VWidth: 0
Flags: W
HStem: -385 387
LayerCount: 2
Fore
SplineSet
114 -385 m 1
 259 -385 l 1
 300 2 l 1
 207 2 l 1
 114 -385 l 1
EndSplineSet
EndChar

StartChar: cent
Encoding: 397 162 181
Width: 976
VWidth: 0
Flags: HW
LayerCount: 2
Fore
SplineSet
563 -155 m 1
 646 -155 l 1
 646 1228 l 1
 563 1228 l 1
 563 -155 l 1
EndSplineSet
Refer: 173 99 N 1 0 0 1 0 0 2
EndChar

StartChar: circumflex
Encoding: 398 710 182
Width: 762
VWidth: 0
Flags: W
LayerCount: 2
Fore
SplineSet
91 1209 m 5
 214 1209 l 5
 370 1473 l 5
 526 1209 l 5
 650 1209 l 5
 470 1584 l 5
 280 1584 l 5
 91 1209 l 5
EndSplineSet
EndChar

StartChar: colon
Encoding: 58 58 183
Width: 551
VWidth: 0
Flags: HW
LayerCount: 2
Fore
SplineSet
181 0 m 1
 375 0 l 1
 375 215 l 1
 181 215 l 1
 181 0 l 1
181 846 m 1
 375 846 l 1
 375 1060 l 1
 181 1060 l 1
 181 846 l 1
EndSplineSet
EndChar

StartChar: comma
Encoding: 44 44 184
Width: 487
VWidth: 0
Flags: HW
LayerCount: 2
Fore
SplineSet
134 -269 m 1
 243 -269 l 1
 243 -269 357 159 357 184 c 1
 359 226 l 1
 182 226 l 1
 182 164 134 -269 134 -269 c 1
EndSplineSet
EndChar

StartChar: copyright
Encoding: 399 169 185
Width: 1753
VWidth: 0
Flags: HW
LayerCount: 2
Fore
SplineSet
890 237 m 0
 993 237 1093 265 1180 321 c 1
 1142 411 l 1
 1058 360 974 341 895 341 c 0
 692 341 538 494 538 743 c 0
 538 974 692 1136 888 1136 c 0
 961 1136 1057 1111 1131 1057 c 1
 1177 1151 l 1
 1088 1212 987 1241 883 1241 c 0
 620 1241 409 1024 409 738 c 0
 409 445 627 237 890 237 c 0
875 67 m 0
 532 67 214 310 214 742 c 0
 214 1173 531 1416 874 1416 c 0
 1219 1416 1540 1173 1540 742 c 0
 1540 311 1220 67 875 67 c 0
875 -24 m 0
 1266 -24 1650 245 1650 742 c 0
 1650 1238 1264 1508 874 1508 c 0
 485 1508 104 1239 104 742 c 0
 104 245 486 -24 875 -24 c 0
EndSplineSet
EndChar

StartChar: currency
Encoding: 400 164 186
Width: 1243
VWidth: 0
Flags: HW
LayerCount: 2
Fore
SplineSet
1067 224 m 1
 1132 295 l 1
 955 467 l 1
 1006 536 1033 616 1033 707 c 0
 1033 793 1006 876 954 948 c 1
 1133 1119 l 1
 1067 1190 l 1
 886 1020 l 1
 815 1078 729 1111 632 1111 c 0
 536 1111 447 1080 376 1022 c 1
 198 1190 l 1
 128 1121 l 1
 309 948 l 1
 257 878 230 795 230 707 c 0
 230 618 257 537 309 467 c 1
 129 295 l 1
 198 226 l 1
 376 394 l 1
 447 336 534 305 632 305 c 0
 729 305 816 337 886 394 c 1
 1067 224 l 1
632 403 m 0
 452 403 335 541 335 707 c 0
 335 872 452 1013 632 1013 c 0
 813 1013 930 872 930 707 c 0
 930 542 814 403 632 403 c 0
EndSplineSet
EndChar

StartChar: d
Encoding: 100 100 187
Width: 1240
VWidth: 0
Flags: HW
LayerCount: 2
Fore
SplineSet
567 -19 m 0
 792 -19 890 122 939 255 c 1
 897 258 l 1
 920 0 l 1
 1072 0 l 1
 1072 1468 l 1
 891 1455 l 1
 891 1127 l 1
 902 821 l 1
 937 833 l 1
 874 965 781 1082 564 1082 c 0
 282 1082 113 859 113 538 c 0
 113 203 273 -19 567 -19 c 0
587 119 m 0
 381 119 293 283 293 534 c 0
 293 795 398 943 597 943 c 0
 786 943 897 802 897 518 c 0
 896 272 803 119 587 119 c 0
EndSplineSet
EndChar

StartChar: dagger
Encoding: 401 8224 188
Width: 903
VWidth: 0
Flags: HW
LayerCount: 2
Fore
SplineSet
393 117 m 1
 514 117 l 1
 514 963 l 1
 809 963 l 1
 809 1075 l 1
 514 1075 l 1
 514 1441 l 1
 393 1441 l 1
 393 1075 l 1
 105 1075 l 1
 105 963 l 1
 393 963 l 1
 393 117 l 1
EndSplineSet
EndChar

StartChar: daggerdbl
Encoding: 402 8225 189
Width: 963
VWidth: 0
Flags: HW
LayerCount: 2
Fore
SplineSet
793 430 m 1
 793 534 l 1
 525 534 l 1
 524 959 l 1
 795 959 l 1
 795 1069 l 1
 521 1069 l 1
 521 1438 l 1
 401 1438 l 1
 401 1069 l 1
 128 1069 l 1
 128 959 l 1
 401 959 l 1
 401 534 l 1
 127 534 l 1
 127 430 l 1
 401 430 l 1
 401 64 l 1
 525 64 l 1
 525 430 l 1
 793 430 l 1
EndSplineSet
EndChar

StartChar: dcroat
Encoding: 404 273 191
Width: 1276
VWidth: 0
Flags: HW
LayerCount: 2
Fore
SplineSet
137 1196 m 1
 137 1305 l 1
 632 1305 l 1
 632 1196 l 1
 137 1196 l 1
EndSplineSet
Refer: 187 100 N 1 0 0 1 0 0 2
EndChar

StartChar: degree
Encoding: 405 176 192
Width: 800
VWidth: 0
Flags: HW
LayerCount: 2
Fore
SplineSet
400 995 m 0
 298 995 215 1070 215 1182 c 0
 215 1293 300 1367 401 1367 c 0
 502 1367 585 1293 585 1182 c 0
 585 1071 502 995 400 995 c 0
400 894 m 0
 568 894 701 1021 701 1183 c 0
 701 1350 564 1468 400 1468 c 0
 238 1468 100 1350 100 1183 c 0
 100 1015 238 894 400 894 c 0
EndSplineSet
EndChar

StartChar: dieresis
Encoding: 406 168 193
Width: 731
VWidth: 0
Flags: W
HStem: 1225 187
LayerCount: 2
Fore
SplineSet
116 1225 m 1
 263 1225 l 1
 263 1412 l 1
 116 1412 l 1
 116 1225 l 1
492 1225 m 1
 639 1225 l 1
 639 1412 l 1
 492 1412 l 1
 492 1225 l 1
EndSplineSet
EndChar

StartChar: divide
Encoding: 407 247 194
Width: 1152
VWidth: 0
Flags: HW
LayerCount: 2
Fore
SplineSet
469 30 m 1
 672 30 l 1
 672 241 l 1
 469 241 l 1
 469 30 l 1
88 491 m 1
 1051 491 l 1
 1051 635 l 1
 88 635 l 1
 88 491 l 1
469 866 m 1
 675 866 l 1
 675 1073 l 1
 469 1073 l 1
 469 866 l 1
EndSplineSet
EndChar

StartChar: dotaccent
Encoding: 408 729 196
Width: 381
VWidth: 0
Flags: W
HStem: 1259 178
VStem: 113 160
LayerCount: 2
Fore
SplineSet
113 1259 m 1
 273 1259 l 1
 273 1437 l 1
 113 1437 l 1
 113 1259 l 1
EndSplineSet
EndChar

StartChar: dotlessi
Encoding: 409 305 197
Width: 441
VWidth: 0
Flags: W
VStem: 151 162
LayerCount: 2
Fore
SplineSet
151 0 m 1
 313 0 l 1
 313 1060 l 1
 151 1060 l 1
 151 0 l 1
EndSplineSet
EndChar

StartChar: e
Encoding: 101 101 198
Width: 1159
VWidth: 0
Flags: W
HStem: -19 137<473.255 900.793> 948 133<464.232 767.727>
LayerCount: 2
Fore
SplineSet
635 -19 m 0
 793 -19 918 15 1019 74 c 1
 982 196 l 1
 890 151 786 118 655 118 c 0
 452 118 291 240 291 535 c 1
 246 498 l 1
 1038 498 l 1
 1038 498 1045 562 1045 587 c 0
 1045 883 887 1081 616 1081 c 0
 339 1081 113 870 113 526 c 0
 113 186 330 -19 635 -19 c 0
295 577 m 1
 302 806 445 948 620 948 c 0
 794 948 881 820 883 573 c 1
 929 615 l 1
 247 615 l 1
 295 577 l 1
EndSplineSet
EndChar

StartChar: eight
Encoding: 56 56 206
Width: 1202
VWidth: 0
Flags: HW
LayerCount: 2
Fore
SplineSet
602 -19 m 0
 860 -19 1077 107 1077 361 c 0
 1077 545 960 695 785 755 c 1
 938 814 1046 924 1046 1098 c 0
 1046 1328 857 1456 602 1456 c 0
 347 1456 155 1328 155 1098 c 0
 155 924 273 805 422 753 c 1
 238 687 125 557 125 361 c 0
 125 107 345 -19 602 -19 c 0
602 119 m 0
 403 119 297 212 297 377 c 0
 297 547 428 647 602 686 c 1
 777 647 904 542 904 378 c 0
 904 206 806 119 602 119 c 0
602 810 m 1
 424 850 330 949 330 1101 c 0
 330 1238 440 1324 602 1324 c 0
 765 1324 872 1238 872 1101 c 0
 872 949 782 850 602 810 c 1
EndSplineSet
EndChar

StartChar: ellipsis
Encoding: 417 8230 207
Width: 1448
VWidth: 0
Flags: HW
LayerCount: 2
Fore
SplineSet
244 -12 m 0
 158 -12 114 53 114 117 c 0
 114 181 157 245 244 245 c 0
 331 245 373 181 373 117 c 0
 373 53 331 -12 244 -12 c 0
725 -12 m 0
 639 -12 596 53 596 117 c 0
 596 181 638 245 725 245 c 0
 812 245 855 181 855 117 c 0
 855 53 812 -12 725 -12 c 0
1206 -12 m 0
 1120 -12 1076 53 1076 117 c 0
 1076 181 1119 245 1206 245 c 0
 1293 245 1336 181 1336 117 c 0
 1336 53 1293 -12 1206 -12 c 0
EndSplineSet
EndChar

StartChar: emdash
Encoding: 419 8212 209
Width: 2290
VWidth: 0
Flags: HW
LayerCount: 2
Fore
SplineSet
116 510 m 1
 2206 510 l 1
 2206 652 l 1
 116 652 l 1
 116 510 l 1
EndSplineSet
EndChar

StartChar: endash
Encoding: 420 8211 210
Width: 1219
VWidth: 0
Flags: HW
LayerCount: 2
Fore
SplineSet
113 510 m 1
 1122 510 l 1
 1122 652 l 1
 113 652 l 1
 113 510 l 1
EndSplineSet
EndChar

StartChar: eng
Encoding: 421 331 211
Width: 1146
VWidth: 0
Flags: HW
LayerCount: 2
Fore
SplineSet
626 -292 m 1
 694 -292 l 2
 978 -292 1021 -142 1021 153 c 2
 1021 650 l 2
 1021 935 916 1082 672 1082 c 0
 520 1082 410 1023 334 908 c 1
 314 1060 l 1
 160 1060 l 1
 160 0 l 1
 341 0 l 1
 341 580 l 2
 341 634 344 683 350 729 c 1
 382 852 462 944 638 944 c 0
 802 944 840 837 840 662 c 2
 840 101 l 2
 840 -106 823 -135 655 -135 c 2
 616 -135 l 1
 626 -292 l 1
EndSplineSet
EndChar

StartChar: equal
Encoding: 61 61 213
Width: 1161
VWidth: 0
Flags: HW
LayerCount: 2
Fore
SplineSet
92 516 m 1
 1056 516 l 1
 1056 659 l 1
 92 659 l 1
 92 516 l 1
92 803 m 1
 1056 803 l 1
 1056 946 l 1
 92 946 l 1
 92 803 l 1
EndSplineSet
EndChar

StartChar: eth
Encoding: 423 240 214
Width: 1220
VWidth: 0
Flags: HW
LayerCount: 2
Fore
SplineSet
612 -25 m 0
 941 -25 1108 186 1108 470 c 0
 1108 605 1074 741 1022 839 c 0
 954 965 854 1091 675 1282 c 1
 919 1373 l 1
 868 1491 l 1
 584 1381 l 1
 437 1524 l 1
 235 1524 l 1
 448 1325 l 1
 232 1242 l 1
 282 1125 l 1
 534 1222 l 1
 695 1066 795 938 846 847 c 1
 789 887 724 940 592 940 c 0
 312 940 114 751 114 469 c 0
 114 204 291 -25 612 -25 c 0
618 111 m 0
 395 111 286 284 286 469 c 0
 286 666 405 811 612 811 c 0
 829 811 948 652 948 476 c 0
 948 256 835 111 618 111 c 0
EndSplineSet
EndChar

StartChar: exclam
Encoding: 33 33 215
Width: 573
VWidth: 0
Flags: HW
LayerCount: 2
Fore
SplineSet
288 -12 m 0
 369 -12 409 47 409 108 c 0
 409 168 369 228 288 228 c 0
 207 228 168 168 168 108 c 0
 168 48 207 -12 288 -12 c 0
252 421 m 1
 326 421 l 1
 379 1324 l 1
 379 1461 l 1
 192 1461 l 1
 192 1324 l 1
 252 421 l 1
EndSplineSet
EndChar

StartChar: f
Encoding: 102 102 217
Width: 763
VWidth: 0
Flags: HW
LayerCount: 2
Fore
SplineSet
264 0 m 1
 444 0 l 1
 444 985 l 1
 402 942 l 1
 695 942 l 1
 695 1060 l 1
 399 1060 l 1
 444 1023 l 1
 444 1132 l 2
 444 1323 505 1346 604 1346 c 0
 649 1346 709 1337 722 1335 c 1
 736 1462 l 1
 708 1468 643 1479 571 1479 c 0
 383 1479 264 1393 264 1120 c 2
 264 1022 l 1
 308 1063 l 1
 82 1042 l 1
 77 942 l 1
 300 942 l 1
 264 988 l 1
 264 0 l 1
EndSplineSet
EndChar

StartChar: five
Encoding: 53 53 218
Width: 1202
VWidth: 0
Flags: HW
LayerCount: 2
Fore
SplineSet
568 -20 m 0
 862 -20 1081 152 1081 457 c 0
 1081 702 923 899 647 899 c 0
 534 899 453 868 387 823 c 1
 420 1293 l 1
 1007 1293 l 1
 1021 1437 l 1
 263 1437 l 1
 218 669 l 1
 361 651 l 1
 423 717 519 756 613 756 c 0
 811 756 897 623 897 456 c 0
 897 246 754 125 550 125 c 0
 420 125 290 185 218 231 c 1
 156 102 l 1
 239 49 402 -20 568 -20 c 0
EndSplineSet
EndChar

StartChar: four
Encoding: 52 52 219
Width: 1202
VWidth: 0
Flags: HW
LayerCount: 2
Fore
SplineSet
769 0 m 1
 942 0 l 1
 942 360 l 1
 1108 360 l 1
 1120 500 l 1
 942 500 l 1
 942 1437 l 1
 750 1437 l 1
 112 512 l 1
 112 360 l 1
 769 360 l 1
 769 0 l 1
293 499 m 1
 769 1219 l 1
 769 499 l 1
 293 499 l 1
EndSplineSet
EndChar

StartChar: fraction
Encoding: 425 8260 220
Width: 1124
VWidth: 0
Flags: HW
LayerCount: 2
Fore
SplineSet
112 0 m 1
 260 0 l 1
 1041 1495 l 1
 901 1495 l 1
 112 0 l 1
EndSplineSet
EndChar

StartChar: g
Encoding: 103 103 221
Width: 1252
VWidth: 0
Flags: HW
HStem: -426 101 0 93 982 92
VStem: 128 122 977 125 977 36
LayerCount: 2
Fore
SplineSet
600 146 m 0
 367 146 285 349 285 535 c 0
 285 735 372 943 605 943 c 0
 834 943 917 788 917 577 c 2
 917 496 l 2
 916 307 830 146 600 146 c 0
520 -461 m 0
 934 -461 1093 -221 1093 113 c 2
 1093 1060 l 1
 929 1060 l 1
 913 844 l 1
 948 848 l 1
 894 995 771 1082 590 1082 c 0
 268 1082 105 829 105 527 c 0
 105 265 260 8 577 8 c 0
 778 8 915 116 957 282 c 1
 916 284 l 1
 916 69 l 2
 916 -180 808 -320 512 -320 c 0
 462 -320 340 -313 273 -310 c 1
 273 -451 l 1
 367 -453 451 -461 520 -461 c 0
EndSplineSet
EndChar

StartChar: germandbls
Encoding: 430 223 226
Width: 1172
VWidth: 0
Flags: HW
LayerCount: 2
Fore
SplineSet
349 0 m 1
 171 0 l 1
 171 1007 l 2
 171 1293 298 1466 594 1466 c 0
 818 1466 970 1346 970 1155 c 0
 970 941 766 842 766 754 c 0
 766 641 1139 581 1139 289 c 0
 1139 99 1015 -20 812 -20 c 0
 690 -20 568 15 484 55 c 1
 531 186 l 1
 585 158 682 121 788 121 c 0
 909 121 964 196 964 287 c 0
 964 492 599 546 599 737 c 0
 599 900 801 957 802 1153 c 0
 803 1257 733 1332 600 1332 c 0
 417 1332 349 1237 349 1010 c 2
 349 0 l 1
EndSplineSet
EndChar

StartChar: grave
Encoding: 96 96 227
Width: 621
VWidth: 0
Flags: W
HStem: 1209 375
LayerCount: 2
Fore
SplineSet
399 1209 m 1
 504 1209 l 1
 326 1584 l 1
 121 1584 l 1
 399 1209 l 1
EndSplineSet
EndChar

StartChar: greater
Encoding: 62 62 228
Width: 1174
VWidth: 0
Flags: HW
LayerCount: 2
Fore
SplineSet
145 146 m 1
 1073 584 l 1
 1073 677 l 1
 147 1160 l 1
 147 1009 l 1
 885 636 l 1
 145 300 l 1
 145 146 l 1
EndSplineSet
EndChar

StartChar: greaterequal
Encoding: 431 8805 229
Width: 1161
VWidth: 0
Flags: HW
LayerCount: 2
Fore
SplineSet
155 227 m 1
 1040 695 l 1
 1040 779 l 1
 158 1271 l 1
 158 1125 l 1
 896 736 l 1
 155 371 l 1
 155 227 l 1
128 7 m 1
 1057 7 l 1
 1057 136 l 1
 128 136 l 1
 128 7 l 1
EndSplineSet
EndChar

StartChar: guillemotleft
Encoding: 432 171 230
Width: 979
VWidth: 0
Flags: HW
LayerCount: 2
Fore
SplineSet
741 145 m 1
 871 179 l 1
 614 543 l 1
 877 904 l 1
 743 938 l 1
 454 540 l 1
 741 145 l 1
380 145 m 1
 510 179 l 1
 254 543 l 1
 517 904 l 1
 383 938 l 1
 93 540 l 1
 380 145 l 1
EndSplineSet
EndChar

StartChar: guillemotright
Encoding: 433 187 231
Width: 994
VWidth: 0
Flags: HW
LayerCount: 2
Fore
SplineSet
616 938 m 1
 487 904 l 1
 743 540 l 1
 481 180 l 1
 613 145 l 1
 904 543 l 1
 616 938 l 1
260 938 m 1
 129 904 l 1
 387 540 l 1
 124 180 l 1
 258 145 l 1
 547 543 l 1
 260 938 l 1
EndSplineSet
EndChar

StartChar: guilsinglleft
Encoding: 434 8249 232
Width: 587
VWidth: 0
Flags: HW
LayerCount: 2
Fore
SplineSet
524 975 m 1
 380 975 l 1
 87 558 l 1
 375 150 l 1
 518 150 l 1
 239 558 l 1
 524 975 l 1
EndSplineSet
EndChar

StartChar: guilsinglright
Encoding: 435 8250 233
Width: 593
VWidth: 0
Flags: HW
LayerCount: 2
Fore
SplineSet
101 150 m 1
 245 150 l 1
 539 565 l 1
 250 975 l 1
 107 975 l 1
 385 566 l 1
 101 150 l 1
EndSplineSet
EndChar

StartChar: h
Encoding: 104 104 234
Width: 1206
VWidth: 0
Flags: W
HStem: 943 138<484.233 793.183>
VStem: 170 179<570 793.093> 869 180<648 858.183>
LayerCount: 2
Fore
SplineSet
170 0 m 1
 349 0 l 1
 349 570 l 2
 349 759 411 943 657 943 c 0
 813 943 869 846 869 648 c 2
 869 0 l 1
 1049 0 l 1
 1049 657 l 2
 1049 931 920 1081 689 1081 c 0
 511 1081 367 996 300 844 c 1
 342 829 l 1
 350 1123 l 1
 350 1467 l 1
 170 1455 l 1
 170 0 l 1
EndSplineSet
EndChar

StartChar: hbar
Encoding: 436 295 235
Width: 1184
VWidth: 0
Flags: HW
LayerCount: 2
Fore
SplineSet
214 0 m 1
 371 0 l 1
 371 723 l 1
 396 823 530 948 698 948 c 0
 881 948 914 835 914 595 c 2
 914 0 l 1
 1071 0 l 1
 1071 642 l 2
 1071 920 974 1087 752 1087 c 0
 589 1087 461 1025 371 917 c 1
 371 1228 l 1
 636 1228 l 1
 636 1339 l 1
 371 1339 l 1
 371 1459 l 1
 214 1439 l 1
 214 1339 l 1
 124 1339 l 1
 124 1228 l 1
 214 1228 l 1
 214 0 l 1
EndSplineSet
EndChar

StartChar: hungarumlaut
Encoding: 438 733 237
Width: 763
VWidth: 0
Flags: HW
LayerCount: 2
Fore
SplineSet
116 1217 m 1
 210 1217 l 1
 447 1541 l 1
 279 1541 l 1
 116 1217 l 1
359 1217 m 1
 454 1217 l 1
 726 1541 l 1
 550 1541 l 1
 359 1217 l 1
EndSplineSet
EndChar

StartChar: hyphen
Encoding: 45 45 238
Width: 701
VWidth: 0
Flags: HW
LayerCount: 2
Fore
SplineSet
104 480 m 1
 584 480 l 1
 584 615 l 1
 104 615 l 1
 104 480 l 1
EndSplineSet
EndChar

StartChar: i
Encoding: 105 105 239
Width: 519
VWidth: 0
Flags: W
VStem: 173 181
LayerCount: 2
Fore
SplineSet
173 0 m 1
 354 0 l 1
 354 1060 l 1
 173 1060 l 1
 173 0 l 1
173 1262 m 1
 354 1262 l 1
 354 1437 l 1
 173 1437 l 1
 173 1262 l 1
EndSplineSet
EndChar

StartChar: infinity
Encoding: 446 8734 247
Width: 1735
VWidth: 0
Flags: HW
LayerCount: 2
Fore
SplineSet
462 247 m 0
 241 247 113 429 113 642 c 0
 113 836 266 990 458 990 c 0
 625 990 748 884 868 725 c 1
 980 879 1103 990 1273 990 c 0
 1494 990 1617 837 1617 625 c 0
 1617 402 1465 247 1271 247 c 0
 1123 247 1001 334 868 511 c 1
 751 357 625 247 462 247 c 0
464 371 m 0
 593 371 706 485 798 620 c 1
 707 763 597 870 457 870 c 0
 313 870 224 756 224 622 c 0
 224 496 320 371 464 371 c 0
1273 371 m 0
 1425 371 1497 493 1497 647 c 0
 1497 768 1402 870 1269 870 c 0
 1134 870 1025 750 938 622 c 1
 1058 458 1149 371 1273 371 c 0
EndSplineSet
EndChar

StartChar: integral
Encoding: 447 8747 248
Width: 719
VWidth: 0
Flags: HW
LayerCount: 2
Fore
SplineSet
162 -411 m 0
 129 -411 92 -407 51 -398 c 1
 51 -306 l 1
 87 -315 120 -319 147 -319 c 0
 284 -319 303 -209 303 -49 c 2
 303 1115 l 2
 303 1350 365 1470 536 1470 c 0
 570 1470 609 1465 653 1455 c 1
 653 1363 l 1
 617 1373 587 1378 560 1378 c 0
 443 1378 419 1280 419 1124 c 2
 419 -41 l 2
 419 -281 343 -411 162 -411 c 0
EndSplineSet
EndChar

StartChar: j
Encoding: 106 106 251
Width: 556
VWidth: 0
Flags: W
HStem: -353 144<58 186.883>
VStem: 215 181<-180.236 31>
LayerCount: 2
Fore
SplineSet
20 -353 m 5
 79 -353 l 6
 316 -353 396 -248 396 11 c 6
 396 1060 l 5
 215 1060 l 5
 215 31 l 6
 215 -149 209 -209 58 -209 c 6
 8 -209 l 5
 20 -353 l 5
215 1262 m 1
 396 1262 l 1
 396 1437 l 1
 215 1437 l 1
 215 1262 l 1
EndSplineSet
EndChar

StartChar: k
Encoding: 107 107 253
Width: 1115
VWidth: 0
Flags: W
LayerCount: 2
Fore
SplineSet
170 0 m 5
 350 0 l 5
 350 429 l 5
 304 334 l 5
 503 517 l 5
 436 517 l 5
 875 0 l 5
 1088 0 l 5
 565 615 l 5
 565 533 l 5
 1074 1060 l 5
 853 1060 l 5
 306 501 l 5
 343 501 l 5
 350 751 l 5
 350 1468 l 5
 170 1455 l 5
 170 0 l 5
EndSplineSet
EndChar

StartChar: l
Encoding: 108 108 255
Width: 673
VWidth: 0
Flags: W
HStem: -12 133<388.417 652.515>
VStem: 170 181<157.594 316>
LayerCount: 2
Fore
SplineSet
493 -12 m 4
 573 -12 640 5 653 7 c 5
 653 130 l 5
 647 129 587 121 525 121 c 4
 407 121 351 157 351 300 c 6
 351 1468 l 5
 170 1455 l 5
 170 316 l 6
 170 62 298 -12 493 -12 c 4
EndSplineSet
EndChar

StartChar: less
Encoding: 60 60 260
Width: 1166
VWidth: 0
Flags: HW
LayerCount: 2
Fore
SplineSet
1034 141 m 1
 1035 294 l 2
 290 636 l 1
 1037 1003 l 1
 1037 1154 l 1
 109 678 l 1
 109 585 l 1
 1034 141 l 1
EndSplineSet
EndChar

StartChar: lessequal
Encoding: 456 8804 261
Width: 1164
VWidth: 0
Flags: HW
LayerCount: 2
Fore
SplineSet
1032 256 m 1
 1032 402 l 1
 343 753 l 1
 1032 1122 l 1
 1032 1268 l 1
 154 795 l 1
 154 708 l 1
 1032 256 l 1
123 1 m 1
 1058 1 l 1
 1058 125 l 1
 123 125 l 1
 123 1 l 1
EndSplineSet
EndChar

StartChar: logicalnot
Encoding: 457 172 262
Width: 1174
VWidth: 0
Flags: HW
LayerCount: 2
Fore
SplineSet
924 251 m 1
 1056 251 l 1
 1056 794 l 1
 99 794 l 1
 99 658 l 1
 924 658 l 1
 924 251 l 1
EndSplineSet
EndChar

StartChar: lozenge
Encoding: 458 9674 263
Width: 1134
VWidth: 0
Flags: HW
LayerCount: 2
Fore
SplineSet
518 -47 m 1
 622 -47 l 1
 1041 742 l 1
 631 1531 l 1
 525 1531 l 1
 108 740 l 1
 518 -47 l 1
569 102 m 1
 453 311 345 529 231 742 c 1
 347 954 463 1167 580 1377 c 1
 691 1164 806 951 919 740 c 1
 803 527 685 314 569 102 c 1
EndSplineSet
EndChar

StartChar: m
Encoding: 109 109 264
Width: 1784
VWidth: 0
Flags: W
HStem: 944 138<480.396 744.958 1122.72 1384.43>
VStem: 170 180<627 786.533> 170 146<949.761 1060> 813 181<555 798.247> 1446 180<603 872.453>
LayerCount: 2
Fore
SplineSet
170 0 m 1xb8
 350 0 l 1
 350 627 l 1xd8
 372 806 454 944 627 944 c 0
 775 944 813 836 813 598 c 2
 813 0 l 1
 994 0 l 1
 994 555 l 1
 996 633 998 686 1007 716 c 1
 1044 868 1147 944 1266 944 c 0
 1446 944 1446 765 1446 603 c 2
 1446 0 l 1
 1626 0 l 1
 1626 682 l 2
 1626 942 1522 1082 1298 1082 c 0
 1122 1082 999 982 927 827 c 1
 971 827 l 1
 926 967 853 1082 661 1082 c 0
 486 1082 367 981 298 847 c 1
 345 837 l 1
 316 1060 l 1
 170 1060 l 1
 170 0 l 1xb8
EndSplineSet
EndChar

StartChar: macron
Encoding: 459 175 265
Width: 1020
VWidth: 0
Flags: W
HStem: 1269 126
VStem: 200 600
LayerCount: 2
Fore
SplineSet
200 1269 m 1
 800 1269 l 1
 800 1395 l 1
 200 1395 l 1
 200 1269 l 1
EndSplineSet
EndChar

StartChar: middot
Encoding: 460 -1 266
Width: 398
VWidth: 0
Flags: HW
LayerCount: 2
Fore
SplineSet
114 547 m 1
 114 739 l 1
 278 739 l 1
 278 547 l 1
 114 547 l 1
EndSplineSet
EndChar

StartChar: minus
Encoding: 461 8722 267
Width: 1161
VWidth: 0
Flags: HW
LayerCount: 2
Fore
SplineSet
92 516 m 1
 1056 516 l 1
 1056 659 l 1
 92 659 l 1
 92 516 l 1
EndSplineSet
EndChar

StartChar: multiply
Encoding: 462 215 268
Width: 934
VWidth: 0
Flags: HW
LayerCount: 2
Fore
SplineSet
739 193 m 1
 828 288 l 1
 828 288 588 545 561 572 c 1
 826 849 l 1
 731 944 l 1
 469 668 l 1
 205 947 l 1
 114 852 l 1
 377 572 l 1
 106 286 l 1
 197 192 l 1
 469 476 l 1
 739 193 l 1
EndSplineSet
EndChar

StartChar: n
Encoding: 110 110 269
Width: 1217
VWidth: 0
Flags: W
HStem: 944 138<490.373 807.649>
VStem: 170 180<580 795.625> 170 154<956.576 1060> 879 180<650 867.105>
LayerCount: 2
Fore
SplineSet
170 0 m 1xb0
 350 0 l 1
 350 580 l 2xd0
 350 776 420 944 669 944 c 0
 833 944 879 837 879 662 c 2
 879 0 l 1
 1059 0 l 1
 1059 650 l 2
 1059 935 947 1082 703 1082 c 0
 503 1082 380 991 308 858 c 1
 352 858 l 1
 324 1060 l 1
 170 1060 l 1
 170 0 l 1xb0
EndSplineSet
EndChar

StartChar: nine
Encoding: 57 57 274
Width: 1202
VWidth: 0
Flags: HW
LayerCount: 2
Fore
SplineSet
292 0 m 1
 507 0 l 1
 507 0 862 474 871 486 c 0
 999 661 1095 796 1095 1003 c 0
 1095 1247 921 1456 619 1456 c 0
 331 1456 143 1262 143 1006 c 0
 143 745 349 573 586 573 c 0
 794 573 922 744 935 764 c 1
 904 791 l 1
 904 791 748 598 669 493 c 1
 292 0 l 1
618 713 m 0
 426 713 321 834 321 1008 c 0
 321 1175 428 1314 625 1314 c 0
 821 1314 920 1179 920 1014 c 0
 920 788 754 713 618 713 c 0
EndSplineSet
EndChar

StartChar: notequal
Encoding: 467 8800 275
Width: 1159
VWidth: 0
Flags: HW
LayerCount: 2
Fore
SplineSet
373 47 m 1
 514 340 l 1
 1057 340 l 1
 1050 463 l 1
 569 463 l 1
 723 758 l 1
 1057 758 l 1
 1047 884 l 1
 779 884 l 1
 892 1151 l 1
 785 1166 l 1
 648 884 l 1
 122 884 l 1
 130 758 l 1
 592 758 l 1
 443 463 l 1
 123 463 l 1
 130 340 l 1
 382 340 l 1
 267 65 l 1
 373 47 l 1
EndSplineSet
EndChar

StartChar: numbersign
Encoding: 35 35 277
Width: 1194
VWidth: 0
Flags: HW
LayerCount: 2
Fore
SplineSet
702 517 m 1
 461 517 l 1
 543 936 l 1
 784 936 l 1
 702 517 l 1
599 -17 m 1
 719 -17 l 1
 805 422 l 1
 982 422 l 1
 997 517 l 1
 824 517 l 1
 906 936 l 1
 1068 936 l 1
 1083 1030 l 1
 924 1030 l 1
 1000 1419 l 1
 879 1419 l 1
 803 1030 l 1
 562 1030 l 1
 638 1419 l 1
 516 1419 l 1
 440 1030 l 1
 266 1030 l 1
 253 936 l 1
 422 936 l 1
 340 517 l 1
 179 517 l 1
 166 422 l 1
 322 422 l 1
 236 -17 l 1
 357 -17 l 1
 442 422 l 1
 684 422 l 1
 599 -17 l 1
EndSplineSet
EndChar

StartChar: o
Encoding: 111 111 278
Width: 1228
VWidth: 0
Flags: W
HStem: -19 138<453.443 774.544> 944 138<452.735 776.551>
VStem: 112 184<294.77 761.169> 932 184<294.77 767.202>
LayerCount: 2
Fore
SplineSet
614 119 m 0
 402 119 296 288 296 528 c 0
 296 773 403 944 614 944 c 0
 830 944 932 773 932 528 c 0
 932 288 831 119 614 119 c 0
614 -19 m 0
 915 -19 1116 209 1116 530 c 0
 1116 858 927 1082 614 1082 c 0
 302 1082 112 859 112 530 c 0
 112 209 307 -19 614 -19 c 0
EndSplineSet
EndChar

StartChar: ogonek
Encoding: 473 731 283
Width: 561
VWidth: 0
Flags: W
HStem: -416 113<265.55 451.213>
VStem: 113 146<-295.624 -133.317>
LayerCount: 2
Fore
SplineSet
454 -386 m 1
 451 -278 l 1
 433 -286 384 -303 340 -303 c 0
 296 -303 259 -278 259 -225 c 0
 259 -152 338 -45 400 0 c 1
 316 0 l 1
 216 -41 113 -152 113 -266 c 0
 113 -358 181 -416 304 -416 c 0
 355 -416 418 -402 454 -386 c 1
EndSplineSet
EndChar

StartChar: one
Encoding: 49 49 289
Width: 1202
VWidth: 0
Flags: HW
LayerCount: 2
Fore
SplineSet
237 0 m 1
 1073 0 l 1
 1073 140 l 1
 697 140 l 1
 764 73 l 1
 764 1437 l 1
 599 1437 l 1
 522 1383 354 1331 265 1311 c 1
 265 1167 l 1
 370 1182 552 1239 625 1299 c 1
 583 1323 l 1
 583 74 l 1
 650 140 l 1
 237 140 l 1
 237 0 l 1
EndSplineSet
EndChar

StartChar: onehalf
Encoding: 479 189 290
Width: 1638
VWidth: 0
Flags: HW
LayerCount: 2
Fore
SplineSet
122 612 m 1
 515 612 l 1
 515 727 l 1
 390 727 l 1
 390 1469 l 1
 265 1470 l 1
 242 1447 143 1385 107 1367 c 1
 107 1243 l 1
 133 1256 208 1298 244 1321 c 1
 244 727 l 1
 122 727 l 1
 122 612 l 1
1024 -11 m 1
 1548 -11 l 1
 1555 105 l 1
 1214 105 l 1
 1409 278 1562 398 1562 584 c 0
 1562 748 1427 837 1288 837 c 0
 1172 837 1058 781 1004 689 c 1
 1077 605 l 1
 1133 680 1211 713 1287 713 c 0
 1357 713 1423 668 1423 576 c 0
 1423 452 1169 246 1025 101 c 1
 1024 -11 l 1
296 8 m 1
 441 8 l 1
 1356 1470 l 1
 1212 1470 l 1
 296 8 l 1
EndSplineSet
EndChar

StartChar: onequarter
Encoding: 480 188 291
Width: 1576
VWidth: 0
Flags: HW
LayerCount: 2
Fore
SplineSet
83 608 m 1
 519 608 l 1
 519 724 l 1
 381 724 l 1
 381 1469 l 1
 265 1470 l 1
 242 1447 104 1378 73 1367 c 1
 73 1249 l 1
 102 1259 198 1299 235 1321 c 1
 235 724 l 1
 83 724 l 1
 83 608 l 1
1310 4 m 1
 1439 4 l 1
 1440 185 l 1
 1561 185 l 1
 1553 295 l 1
 1441 295 l 1
 1441 838 l 1
 1300 838 l 1
 932 285 l 1
 932 185 l 1
 1310 185 l 1
 1310 4 l 1
319 0 m 1
 463 0 l 1
 1376 1470 l 1
 1235 1470 l 1
 319 0 l 1
1090 295 m 1
 1309 644 l 1
 1309 295 l 1
 1090 295 l 1
EndSplineSet
EndChar

StartChar: ordmasculine
Encoding: 481 186 292
Width: 844
VWidth: 0
Flags: HW
LayerCount: 2
Fore
SplineSet
189 1175 m 0
 189 1338 268 1478 422 1478 c 0
 581 1478 663 1336 663 1172 c 0
 663 1013 585 874 422 874 c 0
 267 874 189 1015 189 1175 c 0
754 1174 m 0
 754 1393 636 1549 422 1549 c 0
 214 1549 90 1390 90 1174 c 0
 90 962 214 804 422 804 c 0
 618 804 754 965 754 1174 c 0
EndSplineSet
EndChar

StartChar: oslash
Encoding: 482 248 293
Width: 1198
VWidth: 0
Flags: HW
LayerCount: 2
Fore
SplineSet
292 -150 m 1
 1016 1177 l 1
 944 1215 l 1
 227 -111 l 1
 292 -150 l 1
EndSplineSet
Refer: 278 111 N 1 0 0 1 0 0 2
EndChar

StartChar: p
Encoding: 112 112 296
Width: 1241
VWidth: 0
Flags: W
HStem: -19 138<503.372 808.669> 944 138<500.446 811.065>
VStem: 170 181<290.045 786.489> 170 151<921.228 1060> 948 181<281.904 781.463>
LayerCount: 2
Fore
SplineSet
170 -459 m 5xd8
 351 -449 l 5
 351 -59 l 5xe8
 341 285 l 5
 299 256 l 5
 347 130 472 -19 684 -19 c 4
 965 -19 1129 208 1129 528 c 4
 1129 853 975 1082 687 1082 c 4
 513 1082 375 981 306 821 c 5
 346 818 l 5
 321 1060 l 5
 170 1060 l 5
 170 -459 l 5xd8
654 119 m 4
 460 119 348 271 348 546 c 4
 349 789 445 944 660 944 c 4
 862 944 948 779 948 530 c 4
 948 277 853 119 654 119 c 4
EndSplineSet
EndChar

StartChar: paragraph
Encoding: 485 182 297
Width: 1085
VWidth: 0
Flags: HW
LayerCount: 2
Fore
SplineSet
472 -97 m 1
 595 -97 l 1
 595 1385 l 1
 783 1385 l 1
 783 -97 l 1
 906 -97 l 1
 906 1385 l 1
 980 1385 l 1
 980 1506 l 1
 521 1506 l 2
 207 1506 98 1345 98 1176 c 0
 98 1003 204 845 472 845 c 1
 472 -97 l 1
EndSplineSet
EndChar

StartChar: parenleft
Encoding: 40 40 298
Width: 705
VWidth: 0
Flags: HW
LayerCount: 2
Fore
SplineSet
453 -217 m 1
 620 -217 l 1
 442 66 366 372 366 688 c 0
 366 994 453 1282 621 1539 c 1
 451 1539 l 1
 289 1306 191 1008 191 684 c 0
 191 335 290 11 453 -217 c 1
EndSplineSet
EndChar

StartChar: parenright
Encoding: 41 41 299
Width: 709
VWidth: 0
Flags: HW
LayerCount: 2
Fore
SplineSet
111 -217 m 1
 279 -217 l 1
 437 0 539 341 539 692 c 0
 539 1014 446 1295 279 1539 c 1
 110 1539 l 1
 292 1247 364 991 364 693 c 0
 364 368 275 31 111 -217 c 1
EndSplineSet
EndChar

StartChar: partialdiff
Encoding: 486 8706 300
Width: 1182
VWidth: 0
Flags: HW
LayerCount: 2
Fore
SplineSet
509 -27 m 0
 240 -27 123 177 123 440 c 0
 123 785 321 1049 602 1049 c 0
 736 1049 839 987 905 877 c 1
 905 895 906 927 906 954 c 0
 906 1271 793 1467 582 1467 c 0
 482 1467 384 1424 306 1369 c 1
 293 1512 l 1
 374 1568 486 1608 606 1608 c 0
 896 1608 1054 1383 1054 892 c 0
 1054 440 893 -27 509 -27 c 0
510 116 m 0
 721 116 861 373 892 687 c 1
 858 805 767 911 627 911 c 0
 425 911 266 694 266 439 c 0
 266 244 361 116 510 116 c 0
EndSplineSet
EndChar

StartChar: percent
Encoding: 37 37 301
Width: 1781
VWidth: 0
Flags: HW
LayerCount: 2
Fore
SplineSet
1402 -13 m 0
 1175 -13 1062 150 1062 359 c 0
 1062 569 1179 730 1402 730 c 0
 1630 730 1744 572 1744 359 c 0
 1744 150 1627 -13 1402 -13 c 0
1403 86 m 0
 1555 86 1621 206 1621 360 c 0
 1621 519 1554 631 1403 631 c 0
 1250 631 1184 513 1184 360 c 0
 1184 202 1251 86 1403 86 c 0
414 804 m 0
 566 804 632 924 632 1078 c 0
 632 1237 565 1349 414 1349 c 0
 261 1349 194 1231 194 1078 c 0
 194 920 262 804 414 804 c 0
413 705 m 0
 186 705 73 868 73 1077 c 0
 73 1287 190 1448 413 1448 c 0
 641 1448 755 1290 755 1077 c 0
 755 868 638 705 413 705 c 0
426 0 m 1
 1255 1437 l 1
 1385 1437 l 1
 565 0 l 1
 426 0 l 1
EndSplineSet
EndChar

StartChar: period
Encoding: 46 46 302
Width: 497
VWidth: 0
Flags: HW
LayerCount: 2
Fore
SplineSet
261 -9 m 0
 337 -9 375 48 375 106 c 0
 375 164 337 222 261 222 c 0
 184 222 146 164 146 106 c 0
 146 48 185 -9 261 -9 c 0
EndSplineSet
EndChar

StartChar: periodcentered
Encoding: 487 183 303
Width: 398
VWidth: 0
Flags: HW
LayerCount: 2
Fore
SplineSet
114 547 m 1
 114 707 l 1
 278 707 l 1
 278 547 l 1
 114 547 l 1
EndSplineSet
EndChar

StartChar: perthousand
Encoding: 488 8240 304
Width: 2278
VWidth: 0
Flags: HW
LayerCount: 2
Fore
SplineSet
408 895 m 0
 516 895 569 1012 569 1147 c 0
 569 1290 516 1401 404 1401 c 0
 294 1401 242 1284 242 1149 c 0
 242 1006 295 895 408 895 c 0
404 775 m 0
 219 775 116 925 116 1149 c 0
 116 1362 219 1518 406 1518 c 0
 595 1518 694 1373 694 1145 c 0
 694 934 588 775 404 775 c 0
263 -21 m 1
 1097 1507 l 1
 1250 1507 l 1
 395 -21 l 1
 263 -21 l 1
1088 91 m 0
 1217 91 1282 211 1282 345 c 0
 1282 487 1221 594 1087 594 c 0
 958 594 895 480 895 345 c 0
 895 202 959 91 1088 91 c 0
1086 -29 m 0
 872 -29 767 121 767 345 c 0
 767 557 870 716 1088 716 c 0
 1306 716 1407 568 1407 342 c 0
 1407 131 1301 -29 1086 -29 c 0
1843 91 m 0
 1972 91 2037 209 2037 345 c 0
 2037 484 1968 594 1840 594 c 0
 1707 594 1644 480 1644 345 c 0
 1644 202 1709 91 1843 91 c 0
1837 -29 m 0
 1625 -29 1520 121 1520 345 c 0
 1520 557 1626 716 1843 716 c 0
 2057 716 2159 572 2159 342 c 0
 2159 131 2052 -29 1837 -29 c 0
EndSplineSet
EndChar

StartChar: plus
Encoding: 43 43 305
Width: 1093
VWidth: 0
Flags: HW
LayerCount: 2
Fore
SplineSet
495 167 m 1
 631 167 l 1
 631 565 l 1
 1006 565 l 1
 1006 691 l 1
 632 691 l 1
 632 1084 l 1
 496 1084 l 1
 496 691 l 1
 116 691 l 1
 116 565 l 1
 495 565 l 1
 495 167 l 1
EndSplineSet
EndChar

StartChar: plusminus
Encoding: 489 177 306
Width: 1151
VWidth: 0
Flags: HW
LayerCount: 2
Fore
SplineSet
113 0 m 1
 113 125 l 1
 1039 125 l 1
 1039 0 l 1
 113 0 l 1
500 213 m 1
 637 213 l 1
 637 596 l 1
 1000 596 l 1
 1000 726 l 1
 636 726 l 1
 636 1099 l 1
 500 1099 l 1
 500 726 l 1
 131 726 l 1
 131 596 l 1
 500 596 l 1
 500 213 l 1
EndSplineSet
EndChar

StartChar: product
Encoding: 490 8719 307
Width: 1428
VWidth: 0
Flags: HW
LayerCount: 2
Fore
SplineSet
146 0 m 1
 146 1456 l 1
 1284 1456 l 1
 1284 0 l 1
 1112 0 l 1
 1112 1306 l 1
 319 1306 l 1
 319 0 l 1
 146 0 l 1
EndSplineSet
EndChar

StartChar: q
Encoding: 113 113 308
Width: 1266
VWidth: 0
Flags: HW
LayerCount: 2
Fore
SplineSet
919 -459 m 1
 1099 -450 l 1
 1099 1060 l 1
 936 1060 l 1
 912 831 l 1
 949 840 l 1
 890 973 778 1082 577 1082 c 0
 280 1082 113 851 113 525 c 0
 113 209 299 -19 575 -19 c 0
 799 -19 911 111 969 259 c 1
 926 278 l 1
 919 -59 l 1
 919 -459 l 1
604 118 m 0
 397 118 292 279 292 532 c 0
 292 780 394 943 604 943 c 0
 827 943 918 792 918 548 c 0
 919 273 837 118 604 118 c 0
EndSplineSet
EndChar

StartChar: question
Encoding: 63 63 309
Width: 935
VWidth: 0
Flags: HW
LayerCount: 2
Fore
SplineSet
454 418 m 1
 574 749 803 897 803 1161 c 0
 803 1362 638 1473 459 1473 c 0
 323 1473 218 1434 137 1379 c 1
 179 1249 l 1
 226 1278 324 1333 439 1333 c 0
 568 1333 647 1269 647 1141 c 0
 647 922 386 668 372 418 c 1
 454 418 l 1
416 -12 m 0
 496 -12 535 47 535 108 c 0
 535 168 496 228 416 228 c 0
 336 228 296 168 296 108 c 0
 296 48 336 -12 416 -12 c 0
EndSplineSet
EndChar

StartChar: quotedbl
Encoding: 34 34 311
Width: 658
VWidth: 0
Flags: HW
LayerCount: 2
Fore
SplineSet
434 985 m 1
 532 985 l 1
 561 1461 l 1
 401 1461 l 1
 434 985 l 1
152 985 m 1
 249 985 l 1
 277 1461 l 1
 118 1461 l 1
 152 985 l 1
EndSplineSet
EndChar

StartChar: quotedblbase
Encoding: 492 8222 312
Width: 733
VWidth: 0
Flags: HW
LayerCount: 2
Fore
SplineSet
128 -247 m 1
 237 -247 l 1
 363 209 l 1
 213 209 l 1
 128 -247 l 1
398 -247 m 1
 507 -247 l 1
 637 209 l 1
 484 209 l 1
 398 -247 l 1
EndSplineSet
EndChar

StartChar: quotedblleft
Encoding: 493 8220 313
Width: 746
VWidth: 0
Flags: HW
LayerCount: 2
Fore
SplineSet
268 1066 m 1
 356 1522 l 1
 240 1521 l 1
 116 1064 l 1
 268 1066 l 1
571 1066 m 1
 653 1522 l 1
 540 1521 l 1
 415 1064 l 1
 571 1066 l 1
EndSplineSet
EndChar

StartChar: quotedblright
Encoding: 494 8221 314
Width: 705
VWidth: 0
Flags: HW
LayerCount: 2
Fore
SplineSet
86 1096 m 1
 195 1096 l 1
 325 1511 l 1
 175 1511 l 1
 86 1096 l 1
384 1099 m 1
 493 1099 l 1
 625 1511 l 1
 471 1511 l 1
 384 1099 l 1
EndSplineSet
EndChar

StartChar: quoteleft
Encoding: 495 8216 315
Width: 452
VWidth: 0
Flags: HW
LayerCount: 2
Fore
SplineSet
204 1017 m 1
 336 1017 l 1
 307 1437 l 1
 180 1437 l 1
 204 1017 l 1
EndSplineSet
EndChar

StartChar: quoteright
Encoding: 496 8217 316
Width: 446
VWidth: 0
Flags: HW
LayerCount: 2
Fore
SplineSet
118 1017 m 1
 226 1017 l 1
 354 1437 l 1
 207 1437 l 1
 118 1017 l 1
EndSplineSet
EndChar

StartChar: quotesinglbase
Encoding: 497 8218 317
Width: 444
VWidth: 0
Flags: HW
LayerCount: 2
Fore
SplineSet
97 -247 m 1
 208 -247 l 1
 337 209 l 1
 186 209 l 1
 97 -247 l 1
EndSplineSet
EndChar

StartChar: quotesingle
Encoding: 39 39 318
Width: 366
VWidth: 0
Flags: HW
LayerCount: 2
Fore
SplineSet
134 939 m 1
 242 939 l 1
 261 1433 l 1
 114 1433 l 1
 134 939 l 1
EndSplineSet
EndChar

StartChar: r
Encoding: 114 114 319
Width: 813
VWidth: 0
Flags: HW
HStem: 974 94
VStem: 193 122 193 92
LayerCount: 2
Fore
SplineSet
170 0 m 1
 351 0 l 1
 351 596 l 2
 351 777 481 923 666 923 c 0
 689 923 715 920 742 915 c 1
 748 1064 l 1
 724 1068 698 1070 669 1070 c 0
 537 1070 386 994 302 788 c 1
 343 781 l 1
 316 1060 l 1
 170 1060 l 1
 170 0 l 1
EndSplineSet
EndChar

StartChar: radical
Encoding: 499 8730 321
Width: 1241
VWidth: 0
Flags: HW
LayerCount: 2
Fore
SplineSet
597 -162 m 1
 273 723 l 1
 124 693 l 1
 109 811 l 1
 363 866 l 1
 597 224 l 1
 655 43 l 1
 787 587 918 1128 1051 1672 c 1
 1161 1672 l 1
 732 -162 l 1
 597 -162 l 1
EndSplineSet
EndChar

StartChar: registered
Encoding: 502 174 324
Width: 1750
VWidth: 0
Flags: HW
LayerCount: 2
Fore
SplineSet
571 288 m 1
 693 288 l 1
 693 723 l 1
 902 723 l 1
 915 710 1120 288 1120 288 c 1
 1254 288 l 1
 1254 288 1045 710 1022 740 c 1
 1158 757 1219 846 1219 984 c 0
 1219 1155 1128 1231 895 1231 c 2
 571 1231 l 1
 571 288 l 1
693 829 m 1
 693 1125 l 1
 875 1125 l 2
 1039 1125 1101 1108 1101 980 c 0
 1101 870 1052 829 908 829 c 2
 693 829 l 1
874 64 m 0
 531 64 214 308 214 740 c 0
 214 1171 530 1416 873 1416 c 0
 1217 1416 1537 1170 1537 739 c 0
 1537 308 1218 64 874 64 c 0
874 -27 m 0
 1264 -27 1647 243 1647 740 c 0
 1647 1236 1263 1508 873 1508 c 0
 484 1508 103 1237 103 740 c 0
 103 243 485 -27 874 -27 c 0
EndSplineSet
EndChar

StartChar: rho
Encoding: 503 961 325
Width: 1229
VWidth: 0
Flags: HW
LayerCount: 2
Fore
SplineSet
138 -459 m 1
 319 -449 l 1
 319 -59 l 2
 319 7 318 74 314 144 c 1
 384 46 520 -23 661 -23 c 0
 937 -23 1128 209 1128 525 c 0
 1128 850 956 1082 658 1082 c 0
 512 1082 378 1012 320 886 c 1
 302 1060 l 1
 138 1060 l 1
 138 -459 l 1
632 114 m 0
 399 114 319 273 319 548 c 0
 319 792 410 945 633 945 c 0
 843 945 947 780 947 531 c 0
 947 277 839 114 632 114 c 0
EndSplineSet
EndChar

StartChar: ring
Encoding: 504 730 326
Width: 600
VWidth: 0
Flags: W
HStem: 1208 80<224.041 376.113> 1487 82<223.463 377.215>
VStem: 112 93<1302.62 1471.74> 396 92<1302.62 1471.52>
LayerCount: 2
Fore
SplineSet
300 1288 m 0
 243 1288 205 1333 205 1388 c 0
 205 1441 245 1487 300 1487 c 0
 356 1487 396 1441 396 1388 c 0
 396 1333 356 1288 300 1288 c 0
300 1208 m 0
 410 1208 488 1289 488 1389 c 0
 488 1488 412 1569 300 1569 c 0
 189 1569 112 1489 112 1389 c 0
 112 1289 190 1208 300 1208 c 0
EndSplineSet
EndChar

StartChar: s
Encoding: 115 115 327
Width: 968
VWidth: 0
Flags: W
HStem: -19 133<252.964 655.201> 948 134<351.207 741.398>
VStem: 139 159<692.421 894.16> 705 158<168.416 398.719>
LayerCount: 2
Fore
SplineSet
490 -19 m 0
 724 -19 863 87 863 285 c 0
 863 445 796 536 571 602 c 2
 474 631 l 2
 333 673 298 713 298 802 c 0
 298 885 373 948 523 948 c 0
 635 948 711 918 772 891 c 1
 816 1017 l 1
 721 1061 631 1082 504 1082 c 0
 278 1082 139 960 139 787 c 0
 139 652 204 557 398 501 c 2
 505 470 l 2
 673 421 707 375 705 273 c 0
 703 169 636 114 491 114 c 0
 359 114 243 160 193 182 c 1
 148 57 l 1
 182 38 322 -19 490 -19 c 0
EndSplineSet
EndChar

StartChar: section
Encoding: 253 167 333
Width: 991
VWidth: 0
Flags: W
HStem: -18 85<251.762 657.966> 1458 87<347.906 768.272>
VStem: 153 104<694.124 930.689 1175.48 1375.28> 752 102<151.617 391.122 600.85 861.313>
LayerCount: 2
Fore
SplineSet
854 271 m 0
 854 69 672 -18 470 -18 c 0
 364 -18 252 5 159 48 c 1
 193 135 l 1
 272 93 378 67 475 67 c 0
 623 67 752 126 752 278 c 0
 752 389 680 435 482 503 c 0
 281 573 153 632 153 792 c 0
 153 908 223 986 318 1035 c 1
 215 1093 164 1158 164 1274 c 0
 164 1462 341 1545 538 1545 c 0
 634 1545 736 1524 823 1487 c 1
 792 1405 l 1
 722 1438 629 1458 540 1458 c 0
 399 1458 270 1408 270 1282 c 0
 270 1139 377 1109 564 1034 c 1
 774 951 862 904 862 746 c 0
 862 630 820 554 708 507 c 1
 799 456 854 380 854 271 c 0
628 547 m 1
 692 581 759 616 759 758 c 0
 759 859 662 898 526 952 c 1
 394 1003 l 1
 329 979 257 902 257 797 c 0
 257 683 350 658 510 594 c 2
 628 547 l 1
EndSplineSet
EndChar

StartChar: semicolon
Encoding: 59 59 334
Width: 542
VWidth: 0
Flags: HW
LayerCount: 2
Fore
SplineSet
188 846 m 1
 381 846 l 1
 381 1060 l 1
 188 1060 l 1
 188 846 l 1
159 -300 m 1
 264 -300 l 1
 385 190 l 1
 213 190 l 1
 159 -300 l 1
EndSplineSet
EndChar

StartChar: seven
Encoding: 55 55 335
Width: 1202
VWidth: 0
Flags: HW
LayerCount: 2
Fore
SplineSet
354 1 m 1
 538 1 l 1
 1040 1309 l 1
 1040 1437 l 1
 186 1437 l 1
 203 1290 l 1
 847 1290 l 1
 354 1 l 1
EndSplineSet
EndChar

StartChar: six
Encoding: 54 54 336
Width: 1202
VWidth: 0
Flags: HW
LayerCount: 2
Fore
SplineSet
625 -19 m 0
 913 -19 1101 176 1101 430 c 0
 1101 690 895 862 658 862 c 0
 443 862 325 688 310 671 c 1
 341 641 l 1
 341 641 498 846 572 955 c 1
 909 1437 l 1
 701 1437 l 1
 365 956 l 2
 238 774 150 643 150 434 c 0
 150 190 323 -19 625 -19 c 0
620 122 m 0
 424 122 325 258 325 423 c 0
 325 647 490 723 626 723 c 0
 818 723 923 602 923 429 c 0
 923 263 817 122 620 122 c 0
EndSplineSet
EndChar

StartChar: slash
Encoding: 47 47 337
Width: 951
VWidth: 0
Flags: HW
LayerCount: 2
Fore
SplineSet
94 -191 m 1
 227 -191 l 1
 886 1412 l 1
 750 1412 l 1
 94 -191 l 1
EndSplineSet
EndChar

StartChar: sterling
Encoding: 510 163 339
Width: 1122
VWidth: 0
Flags: HW
LayerCount: 2
Fore
SplineSet
118 -0 m 1
 106 133 l 1
 285 151 l 1
 285 658 l 1
 105 658 l 1
 105 788 l 1
 285 788 l 1
 285 893 l 2
 285 1189 349 1457 696 1457 c 0
 840 1457 954 1403 1040 1330 c 1
 967 1215 l 1
 882 1280 797 1316 697 1316 c 0
 506 1316 446 1177 446 964 c 2
 446 788 l 1
 844 788 l 1
 844 658 l 1
 446 658 l 1
 446 153 l 1
 1055 153 l 1
 1043 -0 l 1
 118 -0 l 1
EndSplineSet
EndChar

StartChar: summation
Encoding: 511 8721 340
Width: 1238
VWidth: 0
Flags: HW
LayerCount: 2
Fore
SplineSet
90 -344 m 1
 1172 -344 l 1
 1172 -188 l 1
 287 -188 l 1
 891 584 l 1
 311 1333 l 1
 1134 1333 l 1
 1134 1481 l 1
 112 1481 l 1
 112 1382 l 1
 691 576 l 1
 90 -249 l 1
 90 -344 l 1
EndSplineSet
EndChar

StartChar: t
Encoding: 116 116 341
Width: 829
VWidth: 0
Flags: HW
HStem: -11 83
VStem: 244 122 286 80
LayerCount: 2
Fore
SplineSet
552 -12 m 0
 668 -12 740 11 740 11 c 1
 740 130 l 1
 740 130 650 119 587 119 c 0
 482 119 414 157 414 328 c 2
 414 986 l 1
 378 948 l 1
 724 948 l 1
 724 1060 l 1
 378 1060 l 1
 414 1018 l 1
 414 1329 l 1
 290 1325 l 1
 235 1028 l 1
 284 1063 l 1
 83 1049 l 1
 77 948 l 1
 269 948 l 1
 233 987 l 1
 233 330 l 2
 233 94 344 -12 552 -12 c 0
EndSplineSet
EndChar

StartChar: tbar
Encoding: 512 359 342
Width: 872
VWidth: 0
Flags: HW
LayerCount: 2
Fore
SplineSet
565 -19 m 0
 305 -19 285 108 285 433 c 2
 285 622 l 1
 134 622 l 1
 134 744 l 1
 285 744 l 1
 285 954 l 1
 122 954 l 1
 135 1069 l 1
 285 1069 l 1
 327 1311 l 1
 448 1319 l 1
 448 1069 l 1
 731 1069 l 1
 731 954 l 1
 448 954 l 1
 448 744 l 1
 652 744 l 1
 652 622 l 1
 448 622 l 1
 448 357 l 2
 448 157 471 114 602 114 c 0
 620 114 660 120 735 125 c 1
 750 -6 l 1
 628 -17 598 -19 565 -19 c 0
EndSplineSet
EndChar

StartChar: three
Encoding: 51 51 345
Width: 1202
VWidth: 0
Flags: HW
LayerCount: 2
Fore
SplineSet
576 -22 m 0
 866 -22 1066 128 1066 389 c 0
 1066 592 946 723 768 761 c 1
 931 805 1029 906 1029 1092 c 0
 1029 1321 822 1456 571 1456 c 0
 416 1456 282 1418 167 1347 c 1
 223 1217 l 1
 316 1276 442 1313 563 1313 c 0
 730 1313 853 1230 853 1080 c 0
 853 869 655 835 452 829 c 1
 405 829 l 1
 405 685 l 1
 450 685 l 1
 695 680 886 637 886 391 c 0
 886 209 755 127 563 127 c 0
 433 127 311 169 231 218 c 1
 172 92 l 1
 257 37 400 -22 576 -22 c 0
EndSplineSet
EndChar

StartChar: threequarters
Encoding: 515 190 346
Width: 1596
VWidth: 0
Flags: HW
LayerCount: 2
Fore
SplineSet
343 612 m 0
 489 612 609 705 609 864 c 0
 609 959 552 1035 453 1067 c 1
 557 1095 590 1182 590 1238 c 0
 590 1391 466 1466 340 1466 c 0
 252 1466 139 1432 81 1372 c 1
 137 1281 l 1
 177 1319 267 1348 334 1348 c 0
 404 1348 452 1310 452 1235 c 0
 452 1158 381 1118 281 1118 c 2
 208 1118 l 1
 208 1000 l 1
 283 1000 l 2
 392 1000 471 957 471 868 c 0
 471 774 411 730 332 730 c 0
 271 730 183 755 135 798 c 1
 84 697 l 1
 146 637 260 612 343 612 c 0
1290 9 m 1
 1420 9 l 1
 1420 193 l 1
 1541 193 l 1
 1534 302 l 1
 1422 302 l 1
 1422 847 l 1
 1280 847 l 1
 913 290 l 1
 913 193 l 1
 1290 193 l 1
 1290 9 l 1
334 8 m 1
 479 8 l 1
 1391 1470 l 1
 1249 1470 l 1
 334 8 l 1
1070 302 m 1
 1289 650 l 1
 1289 302 l 1
 1070 302 l 1
EndSplineSet
EndChar

StartChar: tilde
Encoding: 516 732 347
Width: 848
VWidth: 0
Flags: W
HStem: 1245 122<437.546 611.203> 1342 110<221.151 399.52>
VStem: 116 91<1245 1334.3> 621 93<1373.35 1452>
LayerCount: 2
Fore
SplineSet
207 1245 m 1xb0
 216 1314 240 1342 275 1342 c 0x70
 346 1342 462 1245 567 1245 c 0xb0
 657 1245 714 1319 714 1452 c 1
 621 1452 l 1x70
 612 1388 591 1367 561 1367 c 0xb0
 500 1367 399 1452 280 1452 c 0x70
 177 1452 116 1380 116 1245 c 1
 207 1245 l 1xb0
EndSplineSet
EndChar

StartChar: trademark
Encoding: 517 8482 348
Width: 1747
VWidth: 0
Flags: HW
LayerCount: 2
Fore
SplineSet
817 588 m 1
 921 588 l 1
 921 1305 l 1
 1180 657 l 1
 1262 657 l 1
 1538 1304 l 1
 1538 588 l 1
 1643 588 l 1
 1643 1445 l 1
 1504 1445 l 1
 1228 796 l 1
 965 1445 l 1
 817 1445 l 1
 817 588 l 1
332 588 m 1
 438 588 l 1
 438 1348 l 1
 694 1348 l 1
 694 1445 l 1
 82 1445 l 1
 82 1348 l 1
 332 1348 l 1
 332 588 l 1
EndSplineSet
EndChar

StartChar: two
Encoding: 50 50 349
Width: 1202
VWidth: 0
Flags: HW
LayerCount: 2
Fore
SplineSet
166 0 m 1
 1012 0 l 1
 1022 140 l 1
 272 140 l 1
 297 79 l 1
 762 565 l 2
 946 758 1018 863 1018 1062 c 0
 1018 1366 751 1456 572 1456 c 0
 416 1456 256 1402 164 1338 c 1
 218 1202 l 1
 308 1259 438 1302 558 1302 c 0
 677 1302 840 1255 840 1046 c 0
 840 893 765 805 648 682 c 1
 143 143 l 1
 166 0 l 1
EndSplineSet
EndChar

StartChar: u
Encoding: 117 117 350
Width: 1216
VWidth: 0
Flags: HW
LayerCount: 2
Fore
SplineSet
1048 1060 m 1
 868 1060 l 1
 868 469 l 2
 868 273 798 116 562 116 c 0
 392 116 339 223 340 398 c 2
 340 1060 l 1
 159 1060 l 1
 159 409 l 2
 159 120 275 -22 519 -22 c 0
 719 -22 844 47 918 221 c 1
 873 221 l 1
 901 0 l 1
 1048 0 l 1
 1048 1060 l 1
EndSplineSet
EndChar

StartChar: underscore
Encoding: 95 95 359
Width: 1051
VWidth: 0
Flags: HW
LayerCount: 2
Fore
SplineSet
79 -249 m 5
 984 -249 l 5
 984 -121 l 5
 79 -121 l 5
 79 -249 l 5
EndSplineSet
EndChar

StartChar: uni00AD
Encoding: 173 173 362
Width: 913
VWidth: 0
Flags: W
HStem: 228 144
LayerCount: 2
Fore
SplineSet
107 228 m 1
 825 228 l 1
 825 372 l 1
 107 372 l 1
 107 228 l 1
EndSplineSet
EndChar

StartChar: uni00B2
Encoding: 526 178 363
Width: 730
VWidth: 0
Flags: HW
LayerCount: 2
Fore
SplineSet
622 649 m 1
 107 649 l 1
 107 739 l 1
 347 980 521 1132 521 1254 c 0
 521 1360 453 1406 376 1406 c 0
 294 1406 214 1370 150 1284 c 1
 79 1343 l 1
 130 1439 251 1504 364 1504 c 0
 519 1504 633 1422 633 1263 c 0
 633 1074 462 940 250 746 c 1
 622 746 l 1
 622 649 l 1
EndSplineSet
EndChar

StartChar: uni00B3
Encoding: 527 179 364
Width: 786
VWidth: 0
Flags: HW
LayerCount: 2
Fore
SplineSet
410 601 m 0
 557 601 676 696 676 856 c 0
 676 952 617 1029 517 1061 c 1
 614 1085 656 1159 657 1234 c 0
 657 1391 536 1466 408 1466 c 0
 320 1466 213 1432 155 1373 c 1
 206 1281 l 1
 246 1319 335 1349 402 1349 c 0
 472 1349 520 1309 520 1233 c 0
 520 1155 449 1114 349 1114 c 2
 276 1114 l 1
 276 996 l 1
 351 997 l 2
 461 997 542 950 542 859 c 0
 542 763 481 718 402 718 c 0
 341 718 250 745 202 789 c 1
 153 686 l 1
 215 626 327 601 410 601 c 0
EndSplineSet
EndChar

StartChar: uni00B9
Encoding: 529 185 366
Width: 781
VWidth: 0
Flags: HW
LayerCount: 2
Fore
SplineSet
188 645 m 1
 680 645 l 1
 680 773 l 1
 519 773 l 1
 519 1463 l 1
 387 1463 l 1
 364 1440 210 1368 181 1361 c 1
 181 1223 l 1
 214 1230 320 1273 357 1295 c 1
 357 773 l 1
 188 773 l 1
 188 645 l 1
EndSplineSet
EndChar

StartChar: uni0237
Encoding: 615 567 452
Width: 470
VWidth: 0
Flags: HW
HStem: -479 112
VStem: 111 142
LayerCount: 2
Fore
SplineSet
-42 -447 m 1
 15 -447 l 2
 281 -447 336 -355 336 -97 c 2
 336 1072 l 1
 143 1072 l 1
 143 -83 l 2
 143 -245 162 -299 -15 -299 c 2
 -75 -299 l 1
 -42 -447 l 1
EndSplineSet
EndChar

StartChar: uni02BC
Encoding: 616 700 453
Width: 487
VWidth: 0
Flags: HW
LayerCount: 2
Fore
SplineSet
131 1066 m 1
 240 1066 l 1
 375 1521 l 1
 226 1521 l 1
 131 1066 l 1
EndSplineSet
EndChar

StartChar: uni0307
Encoding: 617 775 454
Width: 355
VWidth: 0
Flags: W
HStem: 1255 191
VStem: 101 159
LayerCount: 2
Fore
SplineSet
101 1255 m 1
 260 1255 l 1
 260 1446 l 1
 101 1446 l 1
 101 1255 l 1
EndSplineSet
EndChar

StartChar: uni030F
Encoding: 618 783 455
Width: 695
VWidth: 0
Flags: HW
LayerCount: 2
Fore
SplineSet
582 1297 m 1
 526 1297 l 1
 351 1599 l 1
 473 1599 l 1
 582 1297 l 1
393 1297 m 1
 334 1297 l 1
 108 1599 l 1
 241 1599 l 1
 393 1297 l 1
EndSplineSet
EndChar

StartChar: uni0311
Encoding: 619 785 456
Width: 676
VWidth: 0
Flags: HW
LayerCount: 2
Fore
SplineSet
104 1256 m 1
 215 1256 l 1
 215 1348 271 1391 342 1391 c 0
 413 1391 470 1348 470 1256 c 1
 583 1256 l 1
 583 1422 460 1492 341 1492 c 0
 223 1492 104 1422 104 1256 c 1
EndSplineSet
EndChar

StartChar: uni031B
Encoding: 620 795 457
Width: 486
VWidth: 0
Flags: HW
LayerCount: 2
Fore
SplineSet
217 496 m 1
 227 471 234 438 234 404 c 0
 234 335 208 250 103 250 c 0
 98 250 89 250 83 251 c 1
 83 166 l 1
 104 163 123 162 142 162 c 0
 298 162 344 262 344 358 c 0
 344 408 330 459 314 496 c 1
 217 496 l 1
EndSplineSet
EndChar

StartChar: uni0326
Encoding: 621 806 458
Width: 297
VWidth: 0
Flags: HW
LayerCount: 2
Fore
SplineSet
51 -664 m 1
 132 -196 l 1
 235 -196 l 1
 117 -664 l 1
 51 -664 l 1
EndSplineSet
EndChar

StartChar: uni0402
Encoding: 162 1026 460
Width: 1491
VWidth: 0
Flags: HW
HStem: 709 160<891 1075.89>
VStem: 1141 194<440 643.031>
LayerCount: 2
UndoRedoHistory
Layer: 1
Undoes
EndUndoes
Redoes
EndRedoes
EndUndoRedoHistory
Fore
SplineSet
610 1293 m 1
 1041 1293 l 1
 1041 1437 l 1
 54 1437 l 1
 54 1293 l 1
 416 1293 l 1
 416 0 l 1
 610 0 l 1
 610 709 l 1
 891 710 l 2
 1067 710 1141 670 1141 440 c 2
 1141 234 l 6
 1141 54 1135 -81 909 -81 c 6
 795 -81 l 5
 807 -237 l 5
 931 -237 l 6
 1241 -237 1335 -50 1335 224 c 6
 1335 474 l 2
 1335 728 1195 870 930 870 c 2
 610 869 l 1
 610 1293 l 1
EndSplineSet
EndChar

StartChar: uni040A
Encoding: 170 1034 466
Width: 2116
VWidth: 0
Flags: W
HStem: 0 148<1534 1747.98> 667 141<1536 1761.68>
VStem: 1855 189<244.176 577.609>
LayerCount: 2
UndoRedoHistory
Layer: 0
Undoes
EndUndoes
Redoes
EndRedoes
EndUndoRedoHistory
UndoRedoHistory
Layer: 1
Undoes
EndUndoes
Redoes
EndRedoes
EndUndoRedoHistory
Fore
SplineSet
1066 0 m 1
 1545 0 l 2
 1899 0 2044 155 2044 408 c 0
 2044 657 1906 808 1544 808 c 2
 1200 808 l 1
 1259 753 l 1
 1261 1436 l 1
 1066 1436 l 1
 1066 756 l 1
 1132 808 l 1
 327 808 l 1
 394 756 l 1
 394 1436 l 1
 200 1436 l 1
 200 0 l 1
 394 0 l 1
 394 721 l 1
 327 667 l 1
 1136 667 l 1
 1066 721 l 1
 1066 0 l 1
1260 68 m 1
 1260 728 l 1
 1200 667 l 1
 1536 667 l 2
 1767 667 1855 601 1855 408 c 0
 1855 216 1754 148 1534 148 c 2
 1191 148 l 1
 1260 68 l 1
EndSplineSet
EndChar

StartChar: uni040B
Encoding: 171 1035 467
Width: 1491
VWidth: 0
Flags: W
HStem: 709 160<891 1075.89>
VStem: 1141 194<440 643.031>
LayerCount: 2
UndoRedoHistory
Layer: 0
Undoes
EndUndoes
Redoes
EndRedoes
EndUndoRedoHistory
UndoRedoHistory
Layer: 1
Undoes
EndUndoes
Redoes
EndRedoes
EndUndoRedoHistory
Fore
SplineSet
610 1293 m 1
 1041 1293 l 1
 1041 1437 l 1
 54 1437 l 1
 54 1293 l 1
 416 1293 l 1
 416 0 l 1
 610 0 l 1
 610 709 l 1
 891 710 l 2
 1067 710 1141 670 1141 440 c 2
 1141 0 l 1
 1335 0 l 1
 1335 474 l 2
 1335 728 1195 870 930 870 c 2
 610 869 l 1
 610 1293 l 1
EndSplineSet
EndChar

StartChar: uni040F
Encoding: 175 1039 469
Width: 1518
VWidth: 0
Flags: W
HStem: 0 91<666 860>
VStem: 200 194<146 1437> 666 194<-294 91> 1124 194<146 1437>
LayerCount: 2
UndoRedoHistory
Layer: 1
Undoes
EndUndoes
Redoes
EndRedoes
EndUndoRedoHistory
Fore
SplineSet
1318 1437 m 1
 1318 0 l 1
 200 0 l 1
 200 1437 l 1
 394 1437 l 1
 394 110 l 1
 334 146 l 1
 1179 146 l 1
 1124 110 l 1
 1124 1437 l 1
 1318 1437 l 1
666 -294 m 1
 666 91 l 1
 860 91 l 1
 860 -294 l 1
 666 -294 l 1
EndSplineSet
EndChar

StartChar: uni0411
Encoding: 177 1041 471
Width: 1260
VWidth: 0
Flags: W
HStem: 0 147<699 900.636> 677 147<701 914.571>
VStem: 1009 194<244.363 588.015>
LayerCount: 2
UndoRedoHistory
Layer: 1
Undoes
EndUndoes
Redoes
EndRedoes
EndUndoRedoHistory
Fore
SplineSet
200 0 m 5
 711 0 l 6
 1065 0 1203 163 1203 416 c 4
 1203 665 1071 824 709 824 c 6
 325 824 l 5
 394 765 l 5
 394 1358 l 5
 328 1291 l 5
 1058 1291 l 5
 1058 1437 l 5
 200 1437 l 5
 200 0 l 5
394 68 m 5
 394 735 l 5
 324 677 l 5
 701 677 l 6
 927 677 1009 606 1009 413 c 4
 1009 221 912 147 699 147 c 6
 327 147 l 5
 394 68 l 5
EndSplineSet
EndChar

StartChar: uni0414
Encoding: 180 1044 472
Width: 1466
VWidth: 0
Flags: W
HStem: -294 441<34 202.48 1240 1373>
VStem: 34 171<-294 0> 1046 194<147 1293> 1204 169<-294 0>
LayerCount: 2
UndoRedoHistory
Layer: 0
Undoes
EndUndoes
Redoes
EndRedoes
EndUndoRedoHistory
UndoRedoHistory
Layer: 1
Undoes
EndUndoes
Redoes
EndRedoes
EndUndoRedoHistory
Fore
SplineSet
34 -294 m 1xd0
 34 147 l 1
 194 147 l 1
 286 212 328 365 384 1079 c 2
 411 1437 l 1
 1240 1437 l 1
 1240 147 l 1xe0
 1373 147 l 1
 1373 -294 l 1
 1204 -294 l 1
 1204 0 l 1
 205 0 l 1
 205 -294 l 1
 34 -294 l 1xd0
375 92 m 1
 340 147 l 1
 1108 147 l 1
 1046 91 l 1
 1045 1368 l 1
 1129 1293 l 1
 463 1292 l 1
 590 1353 l 1
 570 1068 l 2
 534.81640625 566.638671875 501 217 375 92 c 1
EndSplineSet
EndChar

StartChar: uni041B
Encoding: 187 1051 476
Width: 1641
VWidth: 0
Flags: W
HStem: -35 156<79 245.329>
VStem: 351 194<227.369 438>
LayerCount: 2
UndoRedoHistory
Layer: 0
Undoes
EndUndoes
Redoes
EndRedoes
EndUndoRedoHistory
Back
SplineSet
-4 -35 m 5
 110 -35 l 6
 420 -35 545 152 545 426 c 6
 545 720 l 5
 351 720 l 5
 351 436 l 6
 351 256 305 121 79 121 c 6
 -16 121 l 5
 -4 -35 l 5
EndSplineSet
UndoRedoHistory
Layer: 1
Undoes
EndUndoes
Redoes
EndRedoes
EndUndoRedoHistory
Fore
SplineSet
351 436 m 2
 351 256 305 121 79 121 c 2
 24 121 l 1
 36 -35 l 1
 110 -35 l 2
 430 -35 545 164 545 438 c 2
 545 1348 l 1
 480 1293 l 1
 1317 1293 l 1
 1247 1347 l 1
 1247 -1 l 1
 1441 -1 l 1
 1441 1437 l 1
 351 1437 l 1
 351 436 l 2
EndSplineSet
EndChar

StartChar: uni041F
Encoding: 191 1055 480
Width: 1524
VWidth: 0
Flags: W
LayerCount: 2
UndoRedoHistory
Layer: 1
Undoes
EndUndoes
Redoes
EndRedoes
EndUndoRedoHistory
Fore
SplineSet
200 0 m 1
 394 0 l 1
 394 1347 l 1
 327 1293 l 1
 1200 1293 l 1
 1130 1347 l 1
 1130 0 l 1
 1324 0 l 1
 1324 1436 l 1
 200 1436 l 1
 200 0 l 1
EndSplineSet
EndChar

StartChar: uni0423
Encoding: 195 1059 484
Width: 1324
VWidth: 0
Flags: W
HStem: 0 21G<349 560.958>
LayerCount: 2
Fore
SplineSet
349 0 m 1
 662 635 l 1
 687 463 l 1
 130 1436 l 1
 332 1436 l 1
 798 618 l 1
 693 673 l 1
 1072 1436 l 1
 1266 1436 l 1
 551 0 l 1
 349 0 l 1
EndSplineSet
EndChar

StartChar: uni0424
Encoding: 196 1060 485
Width: 1656
VWidth: 0
Flags: W
HStem: 123 152<545.104 744 896 1103.58> 1165 151<545.104 744 896 1095.01>
VStem: 94 177<514.018 925.699> 1384 178<515.682 924.445>
LayerCount: 2
UndoRedoHistory
Layer: 0
Undoes
EndUndoes
Redoes
EndRedoes
EndUndoRedoHistory
UndoRedoHistory
Layer: 1
Undoes
EndUndoes
Redoes
EndRedoes
EndUndoRedoHistory
Fore
SplineSet
745 0 m 1
 896 0 l 1
 896 122 l 1
 1310 150 1562 358 1562 720 c 0
 1562 1083 1311 1291 896 1318 c 1
 896 1445 l 1
 745 1445 l 1
 744 1316 l 1
 325 1280 94 1062 94 720 c 0
 94 378 324 159 744 123 c 1
 745 0 l 1
744 275 m 1
 421 309 271 473 271 720 c 0
 271 966 421 1131 744 1165 c 1
 744 275 l 1
896 273 m 1
 896 1166 l 1
 1235 1135 1384 968 1384 720 c 0
 1384 472 1235 304 896 273 c 1
EndSplineSet
EndChar

StartChar: uni0427
Encoding: 199 1063 487
Width: 1297
VWidth: 0
Flags: W
VStem: 140 194<715.969 919>
LayerCount: 2
UndoRedoHistory
Layer: 1
Undoes
EndUndoes
Redoes
EndRedoes
EndUndoRedoHistory
Fore
SplineSet
903 0 m 1
 1097 0 l 1
 1097 1436 l 1
 903 1436 l 1
 903 650 l 1
 905 650 582 649 584 649 c 1
 408 649 334 689 334 919 c 2
 334 1436 l 1
 140 1436 l 1
 140 885 l 2
 140 631 280 489 545 489 c 1
 543 489 907 490 903 490 c 1
 903 0 l 1
EndSplineSet
EndChar

StartChar: uni0428
Encoding: 200 1064 488
Width: 1770
VWidth: 0
Flags: W
LayerCount: 2
UndoRedoHistory
Layer: 0
Undoes
EndUndoes
Redoes
EndRedoes
EndUndoRedoHistory
UndoRedoHistory
Layer: 1
Undoes
EndUndoes
Redoes
EndRedoes
EndUndoRedoHistory
Fore
SplineSet
200 0 m 5
 1570 0 l 5
 1570 1437 l 5
 1376 1437 l 5
 1376 147 l 5
 982 147 l 5
 982 1437 l 5
 788 1437 l 5
 788 147 l 5
 394 147 l 5
 394 1437 l 5
 200 1437 l 5
 200 0 l 5
EndSplineSet
EndChar

StartChar: uni0429
Encoding: 201 1065 489
Width: 1770
VWidth: 0
Flags: W
LayerCount: 2
UndoRedoHistory
Layer: 1
Undoes
EndUndoes
Redoes
EndRedoes
EndUndoRedoHistory
Fore
SplineSet
1492 -292 m 5
 1676 -292 l 1
 1676 147 l 1
 1492 147 l 5
 1492 -292 l 5
EndSplineSet
Refer: 488 1064 N 1 0 0 1 0 0 2
EndChar

StartChar: uni042A
Encoding: 202 1066 490
Width: 1342
VWidth: 0
Flags: W
HStem: 0 147<787 988.743> 678 146<789 1002.69>
VStem: 1097 195<244.705 588.515>
LayerCount: 2
UndoRedoHistory
Layer: 0
Undoes
EndUndoes
Redoes
EndRedoes
EndUndoRedoHistory
UndoRedoHistory
Layer: 1
Undoes
EndUndoes
Redoes
EndRedoes
EndUndoRedoHistory
Fore
SplineSet
400 1436 m 1
 42 1436 l 5
 42 1292 l 5
 401 1292 l 1
 400 1436 l 1
EndSplineSet
Refer: 492 1068 N 1 0 0 1 96 0 2
EndChar

StartChar: uni042B
Encoding: 203 1067 491
Width: 1817
VWidth: 0
Flags: W
HStem: 0 21G<1423 1617> 0 147<691 892.743> 678 146<693 906.693>
VStem: 1001 195<244.705 588.515> 1423 194<0 1436>
LayerCount: 2
UndoRedoHistory
Layer: 1
Undoes
EndUndoes
Redoes
EndRedoes
EndUndoRedoHistory
Fore
SplineSet
1423 0 m 1xb8
 1423 1436 l 1
 1617 1436 l 1
 1617 0 l 1
 1423 0 l 1xb8
EndSplineSet
Refer: 492 1068 N 1 0 0 1 0 0 2
EndChar

StartChar: uni042C
Encoding: 204 1068 492
Width: 1282
VWidth: 0
Flags: W
HStem: 0 147<691 892.743> 678 146<693 906.693>
VStem: 1001 195<244.705 588.515>
LayerCount: 2
Fore
SplineSet
200 0 m 5
 703 0 l 6
 1057 0 1196 163 1196 416 c 4
 1196 665 1063 824 701 824 c 6
 325 824 l 5
 394 765 l 5
 394 1436 l 5
 200 1436 l 5
 200 0 l 5
394 68 m 5
 394 736 l 5
 324 678 l 5
 693 678 l 6
 919 678 1001 607 1001 414 c 4
 1001 222 904 147 691 147 c 6
 327 147 l 5
 394 68 l 5
EndSplineSet
EndChar

StartChar: uni0431
Encoding: 209 1073 494
Width: 1112
VWidth: 0
Flags: W
HStem: -20.5117 118.909<425.858 728.552> 708.473 136.842<442.047 729.802> 1151 140<664.204 902.741>
VStem: 128 169.867<235.508 688.413> 832.011 183.989<210.449 602.701>
LayerCount: 2
UndoRedoHistory
Layer: 0
Undoes
EndUndoes
Redoes
EndRedoes
EndUndoRedoHistory
Back
SplineSet
593 -20 m 0
 179 -20 122 354 122 480 c 0
 122 907 290 1174 921 1210 c 1
 918 1093 l 1
 650 1077 378 1078 298 685 c 1
 444 755 447 819 635 819 c 0
 877 819 1016 573 1016 419 c 0
 1016 193 842 -20 593 -20 c 0
589 72 m 0
 832 72 832 194 832 434 c 0
 832 598 794 746 635 746 c 0
 583 746 463 732 316 588 c 1
 311 547 307 508 307 473 c 0
 307 168 455 72 589 72 c 0
EndSplineSet
UndoRedoHistory
Layer: 1
Undoes
EndUndoes
Redoes
EndRedoes
EndUndoRedoHistory
Fore
SplineSet
572.099609375 98.3974609375 m 0
 734.587890625 98.3974609375 832.010742188 187.704101562 832.010742188 418.345703125 c 0
 832.010742188 615.7109375 724.346679688 708.47265625 599.750976562 708.47265625 c 0
 497.982421875 708.47265625 390.91796875 659.262695312 316 588 c 1
 303.611328125 529.069335938 297.8671875 475.522460938 297.8671875 427.32421875 c 0
 297.8671875 206.953125 417.947265625 98.3974609375 572.099609375 98.3974609375 c 0
128 463 m 0
 128 905 270 1255 901 1291 c 1
 918 1151 l 1
 572.62109375 1118.29003906 390.188476562 1033.71679688 323.490234375 731.276367188 c 1
 382.172851562 775.858398438 504.336914062 845.314453125 622.014648438 845.314453125 c 0
 859.15625 845.314453125 1016 663.174804688 1016 431 c 0
 1016 102.64453125 794.012695312 -20.51171875 574.364257812 -20.51171875 c 0
 347.140625 -20.51171875 128 109 128 463 c 0
EndSplineSet
EndChar

StartChar: uni0432
Encoding: 210 1074 495
Width: 1130
VWidth: 0
Flags: W
HStem: 0 132<350 797.14> 494 116<350 772.343> 928 132<350 774.961>
VStem: 170 180<132 494 610 928> 811.813 184.187<649.153 895.85> 851.298 179.702<181.608 439.954>
LayerCount: 2
UndoRedoHistory
Layer: 1
Undoes
EndUndoes
Redoes
EndRedoes
EndUndoRedoHistory
Fore
SplineSet
170 0 m 1xf4
 170 1060 l 1
 651 1060 l 2
 925 1060 996 917 996 794 c 0xf8
 996 671 947 598 842 566 c 1
 1007 521 1031 391 1031 302 c 0
 1031 176 966 0 640 0 c 2
 170 0 l 1xf4
350 132 m 1
 641 132 l 2
 819.30859375 132 851.297851562 219.376953125 851.297851562 308.15625 c 0xf4
 851.297851562 399.831054688 813.741210938 494 646 494 c 2
 350 494 l 1
 350 132 l 1
350 610 m 1
 646 610 l 2
 784.1953125 610 811.813476562 695.096679688 811.813476562 777.833007812 c 0xf8
 811.813476562 854.353515625 795.564453125 928 646 928 c 2
 350 928 l 1
 350 610 l 1
EndSplineSet
EndChar

StartChar: uni0433
Encoding: 211 1075 496
Width: 923
VWidth: 0
Flags: W
HStem: 0 21G<170 350> 928 132<350 882>
VStem: 170 180<0 928>
LayerCount: 2
UndoRedoHistory
Layer: 0
Undoes
EndUndoes
Redoes
EndRedoes
EndUndoRedoHistory
UndoRedoHistory
Layer: 1
Undoes
EndUndoes
Redoes
EndRedoes
EndUndoRedoHistory
Fore
SplineSet
170 0 m 1
 170 1060 l 1
 891 1060 l 1
 882 928 l 1
 350 928 l 1
 350 0 l 1
 170 0 l 1
EndSplineSet
EndChar

StartChar: uni0434
Encoding: 212 1076 497
Width: 1256
VWidth: 0
Flags: W
HStem: -275 409<52 213.846 1089 1170> 0 134<348 909> 937 122<569 909>
VStem: 52 163<-275 0> 909 180<134 937> 998 172<-275 0>
LayerCount: 2
UndoRedoHistory
Layer: 0
Undoes
EndUndoes
Redoes
EndRedoes
EndUndoRedoHistory
UndoRedoHistory
Layer: 1
Undoes
EndUndoes
Redoes
EndRedoes
EndUndoRedoHistory
Fore
SplineSet
52 -275 m 1xb4
 52 134 l 1
 95 134 l 2
 180.440429688 134 283.928710938 190.76953125 315 382 c 2
 425 1059 l 1
 1089 1059 l 1
 1089 134 l 1xb8
 1170 134 l 1
 1170 -275 l 1
 998 -275 l 1xb4
 998 0 l 1
 214 0 l 1x74
 215 -275 l 1
 52 -275 l 1xb4
348 132 m 1
 909 132 l 1
 909 937 l 1
 569 937 l 1
 486 373 l 2
 454.013671875 167.997070312 347 132 348 132 c 1
EndSplineSet
EndChar

StartChar: uni0436
Encoding: 214 1078 499
Width: 1700
VWidth: 0
Flags: W
LayerCount: 2
UndoRedoHistory
Layer: 0
Undoes
EndUndoes
Redoes
EndRedoes
EndUndoRedoHistory
UndoRedoHistory
Layer: 1
Undoes
EndUndoes
Redoes
EndRedoes
EndUndoRedoHistory
Fore
SplineSet
760 751 m 1
 767 501 l 1
 804 501 l 1
 257 1060 l 1
 36 1060 l 1
 545 533 l 1
 545 615 l 1
 22 0 l 1
 235 0 l 1
 674 517 l 1
 607 517 l 1
 806 334 l 1
 760 429 l 1
 760 0 l 1
 940 0 l 1
 940 429 l 1
 894 334 l 1
 1093 517 l 1
 1026 517 l 1
 1465 0 l 1
 1678 0 l 1
 1155 615 l 1
 1155 533 l 1
 1664 1060 l 1
 1443 1060 l 1
 896 501 l 1
 933 501 l 1
 940 751 l 1
 940 1060 l 1
 760 1060 l 1
 760 751 l 1
EndSplineSet
EndChar

StartChar: uni0438
Encoding: 216 1080 500
Width: 1279
VWidth: 0
Flags: W
HStem: 0 21G<170 347.917 929 1109>
VStem: 170 180<247 1060> 929 180<0 707 942 1060>
LayerCount: 2
Fore
SplineSet
170 0 m 1
 170 1060 l 1
 350 1060 l 1
 350 247 l 1
 929 942 l 1
 929 1060 l 1
 1109 1060 l 5
 1109 0 l 5
 929 0 l 1
 929 707 l 1
 331 0 l 1
 170 0 l 1
EndSplineSet
EndChar

StartChar: uni043A
Encoding: 218 1082 502
Width: 1115
VWidth: 0
Flags: W
LayerCount: 2
Fore
SplineSet
170 0 m 1
 350 0 l 1
 350 429 l 1
 304 334 l 1
 503 517 l 1
 436 517 l 1
 875 0 l 1
 1088 0 l 1
 565 615 l 1
 565 533 l 1
 1074 1060 l 1
 853 1060 l 1
 306 501 l 1
 343 501 l 1
 350 751 l 1
 350 1060 l 1
 170 1060 l 1
 170 0 l 1
EndSplineSet
EndChar

StartChar: uni043B
Encoding: 219 1083 503
Width: 1270
VWidth: 0
Flags: W
HStem: -7 154<32 186.285> 928 132<526 920>
VStem: 920 180<0 928>
LayerCount: 2
UndoRedoHistory
Layer: 0
Undoes
EndUndoes
Redoes
EndRedoes
EndUndoRedoHistory
UndoRedoHistory
Layer: 1
Undoes
EndUndoes
Redoes
EndRedoes
EndUndoRedoHistory
Fore
SplineSet
32 -7 m 1
 14 147 l 5
 190 147 240.283203125 171.505859375 282 462 c 2
 368 1060 l 1
 1100 1060 l 1
 1100 0 l 1
 920 0 l 1
 920 928 l 1
 526 928 l 1
 458 456 l 2
 401.223632812 42.9951171875 280 -7 32 -7 c 1
EndSplineSet
EndChar

StartChar: uni043C
Encoding: 220 1084 504
Width: 1429
VWidth: 0
Flags: W
HStem: 0 21G<170 345 1085 1259>
VStem: 170 175<0 743> 1085 174<0 743>
LayerCount: 2
Fore
SplineSet
170 0 m 1
 170 1060 l 1
 341 1060 l 5
 718 398 l 1
 1092 1060 l 1
 1259 1060 l 1
 1259 0 l 1
 1085 0 l 1
 1085 743 l 1
 762 182 l 1
 671 182 l 1
 345 743 l 5
 345 0 l 5
 170 0 l 1
EndSplineSet
EndChar

StartChar: uni043D
Encoding: 221 1085 505
Width: 1269
VWidth: 0
Flags: W
HStem: 0 21G<170 350 919 1099> 493 115<350 919>
VStem: 170 180<0 493 608 1060> 919 180<0 493 608 1060>
LayerCount: 2
Back
SplineSet
155 0 m 5
 155 1060 l 5
 1084 1060 l 5
 1084 0 l 5
 904 0 l 5
 904 948 l 5
 335 948 l 5
 335 0 l 5
 155 0 l 5
EndSplineSet
Fore
SplineSet
170 0 m 1
 170 1060 l 1
 350 1060 l 1
 350 608 l 1
 919 608 l 1
 919 1060 l 1
 1099 1060 l 1
 1099 0 l 1
 919 0 l 1
 919 493 l 1
 350 493 l 1
 350 0 l 1
 170 0 l 1
EndSplineSet
EndChar

StartChar: uni043F
Encoding: 223 1087 507
Width: 1269
VWidth: 0
Flags: W
HStem: 0 21G<170 350 919 1099> 928 132<350 919>
VStem: 170 180<0 928> 919 180<0 928>
LayerCount: 2
Fore
SplineSet
170 0 m 1
 170 1060 l 1
 1099 1060 l 1
 1099 0 l 1
 919 0 l 1
 919 928 l 1
 350 928 l 1
 350 0 l 1
 170 0 l 1
EndSplineSet
EndChar

StartChar: uni0441
Encoding: 225 1089 509
Width: 1001
VWidth: 0
Flags: W
HStem: -19 140<466.758 839.253> 942 140<470.809 830.918>
VStem: 112 179<314.839 744.138>
LayerCount: 2
UndoRedoHistory
Layer: 0
Undoes
EndUndoes
Redoes
EndRedoes
EndUndoRedoHistory
UndoRedoHistory
Layer: 1
Undoes
EndUndoes
Redoes
EndRedoes
EndUndoRedoHistory
Fore
SplineSet
747.799804688 483.940429688 m 1
 747.799804688 594.940429688 l 1
 229.799804688 594.940429688 l 1
 229.799804688 483.940429688 l 1
 747.799804688 483.940429688 l 1
EndSplineSet
Refer: 173 99 N 1 0 0 1 -1 0 2
EndChar

StartChar: uni0442
Encoding: 226 1090 510
Width: 996
VWidth: 0
Flags: W
HStem: 0 21G<408 588> 928 132<92 408 588 904>
VStem: 408 180<0 928>
LayerCount: 2
Fore
SplineSet
408 0 m 1
 408 928 l 1
 92 928 l 1
 92 1060 l 1
 904 1060 l 5
 904 928 l 5
 588 928 l 1
 588 0 l 1
 408 0 l 1
EndSplineSet
EndChar

StartChar: uni0443
Encoding: 227 1091 511
Width: 1115
VWidth: 0
Flags: W
HStem: -352 139<200 445.203>
VStem: 499 166<-164.847 91> 631 34<91 145.392>
LayerCount: 2
Back
SplineSet
501 -398 m 5
 1055 1060 l 5
 871 1060 l 5
 561 173 l 5
 603 173 l 5
 261 1060 l 5
 76 1060 l 5
 522 -38 l 5
 522 90 l 5
 343 -366 l 5
 501 -398 l 5
EndSplineSet
UndoRedoHistory
Layer: 1
Undoes
EndUndoes
Redoes
EndRedoes
EndUndoRedoHistory
Fore
SplineSet
200 -352 m 1xc0
 200 -213 l 1
 497 -213 501 -164 499 48 c 2
 499 213 l 1xc0
 544 83 l 1
 55 1060 l 1
 242 1060 l 1
 610 293 l 5
 560 293 l 5
 889 1060 l 1
 1075 1060 l 1
 631 91 l 1
 665 220 l 1xa0
 665 37 l 2
 665 -254.005859375 609 -352 200 -352 c 1xc0
EndSplineSet
EndChar

StartChar: uni0444
Encoding: 228 1092 512
Width: 1658
VWidth: 0
Flags: W
VStem: 112 178<305.456 768.024> 744 170<-381 80 199.045 860.984 970 1304> 1369 177<311.283 769.234>
LayerCount: 2
Back
SplineSet
744 -381 m 5
 744 80 l 5
 683 52 598 43 527 43 c 4
 325 43 112 249 112 541 c 4
 112 833 306 1019 517 1019 c 4
 583 1019 683 998 744 970 c 5
 744 1304 l 5
 914 1304 l 5
 914 970 l 5
 978 999 1068 1019 1139 1019 c 4
 1349 1019 1546 834 1546 542 c 4
 1546 252 1333 43 1129 43 c 4
 1058 43 973 52 914 80 c 5
 914 -381 l 5
 744 -381 l 5
533 134 m 4
 598 134 680 142 744 175 c 5
 744 885 l 5
 671 924 583 929 516 929 c 4
 357 929 290 754 290 542 c 4
 290 332 374 134 533 134 c 4
1125 134 m 4
 1281 134 1369 331 1369 541 c 4
 1369 754 1298 928 1141 928 c 4
 1070 928 985 917 914 878 c 5
 914 179 l 5
 981 140 1058 134 1125 134 c 4
EndSplineSet
Fore
SplineSet
744 -381 m 1
 744 80 l 1
 378.826171875 -54.669921875 112 171.815429688 112 541 c 0
 112 929.220703125 408.58984375 1114.77832031 744 970 c 1
 744 1304 l 1
 914 1304 l 1
 914 970 l 1
 1246.60742188 1111.65039062 1546 931.174804688 1546 542 c 0
 1546 178.95703125 1278.70214844 -59.3505859375 914 80 c 1
 914 -381 l 1
 744 -381 l 1
744 210 m 1
 744 851 l 1
 440.283203125 982.57421875 290 857.041015625 290 542 c 0
 290 233.782226562 442.020507812 84.6044921875 744 210 c 1
1369 541 m 0
 1369 864.374023438 1211.06054688 976.188476562 914 844 c 1
 914 214 l 1
 1227.88574219 74.57421875 1369 237.323242188 1369 541 c 0
EndSplineSet
EndChar

StartChar: uni0446
Encoding: 230 1094 514
Width: 1224
VWidth: 0
Flags: W
HStem: 0 132<350 866>
VStem: 170 180<132 1060> 866 180<132 1060> 998 160<-289 0>
LayerCount: 2
UndoRedoHistory
Layer: 1
Undoes
EndUndoes
Redoes
EndRedoes
EndUndoRedoHistory
Fore
SplineSet
998 -289 m 5xd0
 998 0 l 5xd0
 170 0 l 1
 170 1060 l 1
 350 1060 l 1
 350 132 l 1
 866 132 l 5
 866 1060 l 5
 1046 1060 l 5
 1046 132 l 5xe0
 1158 132 l 5
 1158 -289 l 5
 998 -289 l 5xd0
EndSplineSet
EndChar

StartChar: uni0447
Encoding: 231 1095 515
Width: 1081
VWidth: 0
Flags: W
HStem: 402 139<372.642 560>
VStem: 124 181<609.64 810>
LayerCount: 2
Back
SplineSet
731 0 m 5
 911 0 l 5
 911 1060 l 5
 731 1060 l 5
 731 605 l 5
 729 583 590 547 529 547 c 4
 370 547 305 608 305 840 c 6
 305 1060 l 5
 124 1060 l 5
 124 824 l 6
 124 493 270 409 513 408 c 4
 565 408 709 423 731 445 c 5
 731 0 l 5
EndSplineSet
UndoRedoHistory
Layer: 1
Undoes
EndUndoes
Redoes
EndRedoes
EndUndoRedoHistory
Fore
SplineSet
731 0 m 1
 911 0 l 1
 911 1060 l 1
 731 1060 l 1
 731 541 l 1
 557 541 l 2
 370.000976562 541 305 591 305 810 c 2
 305 1060 l 1
 124 1060 l 1
 124 794 l 2
 124 520 251 402 560 402 c 2
 731 402 l 1
 731 0 l 1
EndSplineSet
EndChar

StartChar: uni0448
Encoding: 232 1096 516
Width: 1496
VWidth: 0
Flags: W
HStem: 0 132<340 664 834 1156>
VStem: 170 170<132 1060> 664 170<132 1060> 1156 170<132 1060>
LayerCount: 2
Fore
SplineSet
170 0 m 5
 170 1060 l 5
 340 1060 l 5
 340 132 l 5
 664 132 l 5
 664 1060 l 5
 834 1060 l 5
 834 132 l 5
 1156 132 l 5
 1156 1060 l 5
 1326 1060 l 5
 1326 0 l 5
 170 0 l 5
EndSplineSet
EndChar

StartChar: uni0449
Encoding: 233 1097 517
Width: 1453
VWidth: 0
Flags: W
HStem: 0 132<340 664 834 1156 1294 1326>
VStem: 170 170<132 1060> 664 170<132 1060> 1156 170<134 1060> 1243 180<-280 0>
LayerCount: 2
UndoRedoHistory
Layer: 1
Undoes
EndUndoes
Redoes
EndRedoes
EndUndoRedoHistory
Fore
SplineSet
170 0 m 1xf0
 170 1060 l 1
 340 1060 l 1
 340 132 l 1
 664 132 l 1
 664 1060 l 1
 834 1060 l 1
 834 132 l 1
 1156 132 l 1
 1156 1060 l 1
 1326 1060 l 1
 1326 0 l 1
 170 0 l 1xf0
1243 -280 m 1xe8
 1243 0 l 1
 1294 134 l 1
 1423 134 l 1
 1423 -280 l 1
 1243 -280 l 1xe8
EndSplineSet
EndChar

StartChar: uni044A
Encoding: 234 1098 518
Width: 1066
VWidth: 0
Flags: W
HStem: 0 132<388 739.145> 534 137<388 748.305> 928 132<38 208>
VStem: 208 180<132 534 671 928> 802 180<198.455 481.107>
LayerCount: 2
UndoRedoHistory
Layer: 0
Undoes
EndUndoes
Redoes
EndRedoes
EndUndoRedoHistory
UndoRedoHistory
Layer: 1
Undoes
EndUndoes
Redoes
EndRedoes
EndUndoRedoHistory
Fore
SplineSet
208 0 m 1
 208 928 l 1
 38 928 l 1
 38 1060 l 1
 388 1060 l 1
 388 671 l 1
 601 671 l 2
 903 671 982 512 982 347 c 0
 982 164 898 0 609 0 c 2
 208 0 l 1
388 132 m 1
 605 132 l 2
 760 132 802 242 802 349 c 0
 802 462 747 534 598 534 c 2
 388 534 l 1
 388 132 l 1
EndSplineSet
EndChar

StartChar: uni044B
Encoding: 235 1099 519
Width: 1542
VWidth: 0
Flags: W
HStem: 0 132<350 701.145> 534 137<350 710.305>
VStem: 170 180<132 534 671 1060> 764 180<198.455 481.107> 1192 180<0 1060>
LayerCount: 2
Fore
SplineSet
170 0 m 1
 170 1060 l 1
 350 1060 l 1
 350 671 l 1
 563 671 l 2
 865 671 944 512 944 347 c 0
 944 164 860 0 571 0 c 2
 170 0 l 1
350 132 m 1
 567 132 l 2
 722 132 764 242 764 349 c 0
 764 462 709 534 560 534 c 2
 350 534 l 1
 350 132 l 1
1192 0 m 1
 1192 1060 l 1
 1372 1060 l 1
 1372 0 l 1
 1192 0 l 1
EndSplineSet
EndChar

StartChar: uni044C
Encoding: 236 1100 520
Width: 1018
VWidth: 0
Flags: W
HStem: 0 132<350 701.145> 534 137<350 710.305>
VStem: 170 180<132 534 671 1060> 764 180<198.455 481.107>
LayerCount: 2
Fore
SplineSet
170 0 m 5
 170 1060 l 5
 350 1060 l 5
 350 671 l 5
 563 671 l 6
 865 671 944 512 944 347 c 4
 944 164 860 0 571 0 c 6
 170 0 l 5
350 132 m 5
 567 132 l 6
 722 132 764 242 764 349 c 4
 764 462 709 534 560 534 c 6
 350 534 l 5
 350 132 l 5
EndSplineSet
EndChar

StartChar: uni044D
Encoding: 237 1101 521
Width: 1040
VWidth: 0
Flags: W
HStem: -19 140<209.082 569.191> 942 140<200.747 573.242>
VStem: 749 179<318.862 748.161>
LayerCount: 2
UndoRedoHistory
Layer: 0
Undoes
EndUndoes
Redoes
EndRedoes
EndUndoRedoHistory
UndoRedoHistory
Layer: 1
Undoes
EndUndoes
Redoes
EndRedoes
EndUndoRedoHistory
Fore
SplineSet
821 484 m 1
 821 595 l 1
 303 595 l 1
 303 484 l 1
 821 484 l 1
EndSplineSet
Refer: 173 99 N -1 0 0 -1 1041 1063 2
EndChar

StartChar: uni044E
Encoding: 238 1102 522
Width: 1710
VWidth: 0
Flags: W
HStem: -19 138<931.724 1256.97> 944 138<934.396 1258.98>
VStem: 594 178<301.308 493 608 757.946> 1418 180<294.77 767.202>
LayerCount: 2
UndoRedoHistory
Layer: 0
Undoes
EndUndoes
Redoes
EndRedoes
EndUndoRedoHistory
UndoRedoHistory
Layer: 1
Undoes
EndUndoes
Redoes
EndRedoes
EndUndoRedoHistory
Fore
SplineSet
170 0 m 1
 350 0 l 1
 350 493 l 1
 594 493 l 1
 608 192 801 -19 1096 -19 c 0
 1397 -19 1598 209 1598 530 c 0
 1598 858 1409 1082 1096 1082 c 0
 809 1082 626 894 598 608 c 1
 350 608 l 1
 350 1060 l 1
 170 1060 l 1
 170 0 l 1
1096 119 m 0
 884 119 772 288 772 528 c 0
 772 773 885 944 1096 944 c 0
 1312 944 1418 773 1418 528 c 0
 1418 288 1313 119 1096 119 c 0
EndSplineSet
EndChar

StartChar: uni044F
Encoding: 239 1103 523
Width: 1159
VWidth: 0
Flags: W
HStem: 0 21G<181 384.467 809 989> 437 143<561 809> 928 132<355.452 809>
VStem: 114 199<638.883 888.283> 809 180<0 437 580 928>
LayerCount: 2
UndoRedoHistory
Layer: 0
Undoes
EndUndoes
Redoes
EndRedoes
EndUndoRedoHistory
UndoRedoHistory
Layer: 1
Undoes
EndUndoes
Redoes
EndRedoes
EndUndoRedoHistory
Fore
SplineSet
181 0 m 1
 381 444 l 1
 186 492 114 613 114 753 c 0
 114 924 209 1060 480 1060 c 2
 989 1060 l 1
 989 0 l 1
 809 0 l 1
 809 437 l 1
 561 437 l 1
 376 0 l 1
 181 0 l 1
540 580 m 2
 809 580 l 1
 809 928 l 1
 511 928 l 2
 335 928 313 856 313 750 c 0
 313 623 421 580 540 580 c 2
EndSplineSet
EndChar

StartChar: uni0452
Encoding: 242 1106 526
Width: 1247
VWidth: 0
Flags: W
HStem: -280 128<685 869.619> 0 21G<192 372> 650.9 152.629<468.292 834.533> 1072 127<48 192 372 769>
VStem: 192 180<0 589.395 711 1072 1199 1455> 909 180<-119.941 568.124>
LayerCount: 2
UndoRedoHistory
Layer: 0
Undoes
EndUndoes
Redoes
EndRedoes
EndUndoRedoHistory
Back
SplineSet
192 0 m 5
 372 0 l 5
 372 429 l 5
 326 334 l 5
 525 517 l 5
 458 517 l 5
 897 0 l 5
 1110 0 l 5
 587 615 l 5
 587 533 l 5
 1096 1060 l 5
 875 1060 l 5
 328 501 l 5
 365 501 l 5
 372 751 l 5
 372 1468 l 5
 192 1455 l 5
 192 0 l 5
EndSplineSet
UndoRedoHistory
Layer: 1
Undoes
EndUndoes
Redoes
EndRedoes
EndUndoRedoHistory
Fore
SplineSet
685 -280 m 1
 674 -152 l 1
 710 -152 l 2
 887 -152 909 -117 909 95 c 2
 909 366 l 6
 909 585.354492188 821.73046875 650.900390625 705.546875 650.900390625 c 4
 563.490234375 650.900390625 468.125 620.326171875 372 569 c 1
 372 0 l 1
 192 0 l 1
 192 1072 l 1
 48 1072 l 1
 48 1199 l 1
 192 1199 l 1
 192 1455 l 1
 372 1468 l 1
 372 1199 l 1
 769 1199 l 1
 769 1072 l 1
 372 1072 l 1
 372 711 l 1
 474.41796875 772.065429688 573.474609375 803.529296875 718.267578125 803.529296875 c 4
 933.803710938 803.529296875 1089 681.423828125 1089 376 c 6
 1089 147 l 2
 1089 -153 1040 -280 751 -280 c 2
 685 -280 l 1
EndSplineSet
EndChar

StartChar: uni045A
Encoding: 250 1114 532
Width: 1604
VWidth: 0
Flags: W
HStem: 0 132<1215 1352.06> 493 137<1215 1363.89>
VStem: 1408 150<188.799 449.303>
LayerCount: 2
UndoRedoHistory
Layer: 0
Undoes
EndUndoes
Redoes
EndRedoes
EndUndoRedoHistory
UndoRedoHistory
Layer: 1
Undoes
EndUndoes
Redoes
EndRedoes
EndUndoRedoHistory
Fore
SplineSet
170 0 m 1
 347 0 l 1
 347 493 l 1
 819 493 l 1
 819 0 l 1
 1220 0 l 2
 1447 0 1558 147 1558 317 c 0
 1558 498 1454 631 1221 631 c 2
 994 631 l 1
 994 1061 l 1
 819 1061 l 1
 819 630 l 1
 347 630 l 1
 347 1061 l 1
 170 1061 l 1
 170 0 l 1
994 132 m 1
 994 504 l 1
 1215 504 l 2
 1358 504 1408 419 1408 320 c 0
 1408 221 1356 132 1215 132 c 2
 994 132 l 1
EndSplineSet
EndChar

StartChar: uni045F
Encoding: 255 1119 536
Width: 1169
VWidth: 0
Flags: W
LayerCount: 2
UndoRedoHistory
Layer: 0
Undoes
EndUndoes
Redoes
EndRedoes
EndUndoRedoHistory
UndoRedoHistory
Layer: 1
Undoes
EndUndoes
Redoes
EndRedoes
EndUndoRedoHistory
Fore
SplineSet
517 -268 m 1
 664 -268 l 1
 669 0 l 1
 999 0 l 1
 999 1060 l 1
 819 1060 l 1
 819 147 l 1
 350 147 l 1
 350 1060 l 1
 170 1060 l 1
 170 0 l 1
 513 0 l 1
 517 -268 l 1
EndSplineSet
EndChar

StartChar: uni2074
Encoding: 642 8308 555
Width: 738
VWidth: 0
Flags: HW
LayerCount: 2
Fore
SplineSet
433 640 m 1
 532 640 l 1
 532 836 l 1
 634 836 l 1
 625 945 l 1
 534 945 l 1
 534 1468 l 1
 422 1468 l 1
 113 932 l 1
 113 836 l 1
 433 836 l 1
 433 640 l 1
225 945 m 1
 433 1294 l 1
 432 945 l 1
 225 945 l 1
EndSplineSet
EndChar

StartChar: uni2206
Encoding: 643 8710 556
Width: 1358
VWidth: 0
Flags: HW
LayerCount: 2
Fore
SplineSet
106 0 m 1
 106 83 l 1
 588 1500 l 1
 774 1500 l 1
 1255 83 l 1
 1255 0 l 1
 106 0 l 1
302 169 m 1
 1059 169 l 1
 710 1163 l 1
 676 1278 l 1
 644 1163 l 1
 302 169 l 1
EndSplineSet
EndChar

StartChar: v
Encoding: 118 118 565
Width: 1089
VWidth: 0
Flags: HW
LayerCount: 2
Fore
SplineSet
460 0 m 1
 640 0 l 1
 1040 1060 l 1
 855 1060 l 1
 645 461 l 1
 531 119 l 1
 573 119 l 1
 453 459 l 1
 237 1060 l 1
 50 1060 l 1
 460 0 l 1
EndSplineSet
EndChar

StartChar: w
Encoding: 119 119 566
Width: 1582
VWidth: 0
Flags: HW
LayerCount: 2
Fore
SplineSet
351 0 m 1
 523 0 l 1
 811 956 l 1
 776 956 l 1
 1076 0 l 1
 1239 0 l 1
 1529 1060 l 1
 1362 1060 l 1
 1137 138 l 1
 1174 138 l 1
 888 1060 l 1
 698 1060 l 1
 424 138 l 1
 459 138 l 1
 225 1060 l 1
 53 1060 l 1
 351 0 l 1
EndSplineSet
EndChar

StartChar: x
Encoding: 120 120 571
Width: 1082
VWidth: 0
Flags: W
LayerCount: 2
Fore
SplineSet
42 0 m 1
 243 0 l 1
 561 439 l 1
 630 496 l 1
 1032 1060 l 1
 831 1060 l 1
 528 626 l 1
 460 572 l 1
 42 0 l 1
836 0 m 1
 1038 0 l 1
 269 1060 l 1
 67 1060 l 1
 836 0 l 1
EndSplineSet
EndChar

StartChar: y
Encoding: 121 121 572
Width: 1095
VWidth: 0
Flags: HW
LayerCount: 2
Fore
SplineSet
496 -398 m 5
 1050 1060 l 5
 866 1060 l 5
 556 173 l 5
 598 173 l 5
 256 1060 l 5
 71 1060 l 5
 517 -38 l 5
 517 90 l 5
 338 -366 l 5
 496 -398 l 5
EndSplineSet
EndChar

StartChar: yen
Encoding: 659 165 576
Width: 1238
VWidth: 0
Flags: HW
LayerCount: 2
Fore
SplineSet
547 0 m 1
 739 0 l 1
 739 274 l 1
 1051 274 l 1
 1051 388 l 1
 739 388 l 1
 739 565 l 1
 1050 565 l 1
 1050 677 l 1
 790 677 l 1
 1206 1437 l 1
 1012 1437 l 1
 642 733 l 1
 253 1437 l 1
 58 1437 l 1
 493 677 l 1
 229 677 l 1
 229 565 l 1
 547 565 l 1
 547 388 l 1
 228 388 l 1
 228 274 l 1
 547 274 l 1
 547 0 l 1
EndSplineSet
EndChar

StartChar: z
Encoding: 122 122 578
Width: 950
VWidth: 0
Flags: W
LayerCount: 2
Fore
SplineSet
117 0 m 1
 850 0 l 1
 850 132 l 1
 255 132 l 1
 277 68 l 1
 840 936 l 1
 840 1060 l 1
 139 1060 l 1
 139 928 l 1
 713 928 l 1
 689 989 l 1
 117 116 l 1
 117 0 l 1
EndSplineSet
EndChar

StartChar: zero
Encoding: 48 48 582
Width: 1221
VWidth: 0
Flags: HW
LayerCount: 2
Fore
SplineSet
627 119 m 0
 426 119 311 325 311 719 c 0
 311 1095 426 1307 627 1307 c 0
 828 1307 935 1119 935 719 c 0
 935 325 828 119 627 119 c 0
627 -27 m 0
 976 -27 1115 289 1115 713 c 0
 1115 1157 962 1454 627 1454 c 0
 292 1454 130 1157 130 713 c 0
 130 289 278 -27 627 -27 c 0
EndSplineSet
EndChar

StartChar: thorn
Encoding: 665 254 584
Width: 1245
VWidth: 0
Flags: HW
HStem: -19 92 982 92
VStem: 193 125 193 94 1018 122
LayerCount: 2
Back
SplineSet
170.4 -459.2 m 5
 350.8 -449.2 l 5
 350.8 -58.6 l 5
 340.6 285 l 5
 298.6 255.8 l 5
 346.6 129.8 471.6 -19 683.8 -19 c 4
 965.2 -19 1128.8 207.8 1128.8 527.6 c 4
 1128.8 852.4 975.4 1081.6 687.2 1081.6 c 4
 513.6 1081.6 375 981.6 305.8 821.4 c 5
 346 818.4 l 5
 321.4 1059.8 l 5
 170.4 1059.8 l 5
 170.4 -459.2 l 5
654.4 119 m 4
 460.2 119 347.6 271.4 347.6 546.4 c 4
 348.4 789 445 943.6 660 943.6 c 4
 862 943.6 948 778.6 948 529.6 c 4
 948 276.6 853.6 119 654.4 119 c 4
EndSplineSet
Fore
SplineSet
681 -19 m 0
 972 -19 1134 201 1134 530 c 0
 1134 858 983 1082 688 1082 c 0
 518 1082 382 978 318 848 c 1
 350 841 l 1
 352 1086 l 1
 352 1468 l 1
 170 1455 l 1
 170 -462 l 1
 349 -450 l 1
 349 260 l 1
 295 251 l 1
 344 134 476 -19 681 -19 c 0
657 119 m 0
 468 119 348 259 348 546 c 0
 348 792 452 944 665 944 c 0
 868 944 953 781 953 530 c 0
 953 272 858 119 657 119 c 0
EndSplineSet
EndChar

StartChar: kgreenlandic
Encoding: 666 312 585
Width: 1115
VWidth: 0
Flags: HW
LayerCount: 2
Fore
SplineSet
170 0 m 1
 350 0 l 1
 350 429 l 1
 304 334 l 1
 503 517 l 1
 436 517 l 1
 875 0 l 1
 1088 0 l 1
 565 615 l 1
 565 533 l 1
 1074 1060 l 1
 853 1060 l 1
 306 501 l 1
 343 501 l 1
 350 751 l 1
 350 1060 l 1
 170 1060 l 1
 170 0 l 1
EndSplineSet
EndChar

StartChar: uni2015
Encoding: 668 8213 587
Width: 4096
VWidth: 0
Flags: HW
LayerCount: 2
Fore
SplineSet
104 480 m 1
 104 615 l 1
 3979 615 l 1
 3979 480 l 1
 104 480 l 1
EndSplineSet
EndChar

StartChar: lslash
Encoding: 669 322 588
Width: 673
VWidth: 0
Flags: HW
LayerCount: 2
Fore
SplineSet
0 683 m 1
 557 973 l 1
 557 1063 l 1
 0 773 l 1
 0 683 l 1
EndSplineSet
Refer: 255 108 N 1 0 0 1 0 0 2
EndChar

StartChar: acutecomb
Encoding: 670 769 589
Width: 401
VWidth: 0
Flags: W
HStem: 1178 375
LayerCount: 2
Fore
SplineSet
0 1178 m 1
 106 1178 l 1
 401 1553 l 1
 180 1553 l 1
 0 1178 l 1
EndSplineSet
EndChar

StartChar: gravecomb
Encoding: 671 768 590
Width: 383
VWidth: 0
Flags: W
HStem: 1209 375
LayerCount: 2
Fore
SplineSet
278 1209 m 1
 383 1209 l 1
 205 1584 l 1
 0 1584 l 1
 278 1209 l 1
EndSplineSet
EndChar

StartChar: caroncomb
Encoding: 672 780 591
Width: 567
VWidth: 0
Flags: W
LayerCount: 2
Fore
SplineSet
185 1222 m 1
 372 1222 l 1
 567 1584 l 1
 435 1584 l 1
 275 1329 l 1
 131 1584 l 1
 0 1584 l 1
 185 1222 l 1
EndSplineSet
EndChar

StartChar: circumflexcomb
Encoding: 673 770 592
Width: 559
VWidth: 0
Flags: W
LayerCount: 2
Fore
SplineSet
0 1209 m 5
 123 1209 l 5
 279 1473 l 5
 435 1209 l 5
 559 1209 l 5
 379 1584 l 5
 189 1584 l 5
 0 1209 l 5
EndSplineSet
EndChar

StartChar: tildecomb
Encoding: 674 771 593
Width: 598
VWidth: 0
Flags: W
HStem: 1245 122<321.546 495.203> 1342 110<105.151 283.52>
VStem: 0 91<1245 1334.3> 505 93<1373.35 1452>
LayerCount: 2
Fore
SplineSet
91 1245 m 1xb0
 100 1314 124 1342 159 1342 c 0x70
 230 1342 346 1245 451 1245 c 0xb0
 541 1245 598 1319 598 1452 c 1
 505 1452 l 1x70
 496 1388 475 1367 445 1367 c 0xb0
 384 1367 283 1452 164 1452 c 0x70
 61 1452 0 1380 0 1245 c 1
 91 1245 l 1xb0
EndSplineSet
EndChar

StartChar: uni0404
Encoding: 164 1028 595
Width: 1309
VWidth: 0
Flags: W
HStem: -19 155<633.894 1101.4> 1303 153<626.649 1078.41>
LayerCount: 2
Back
SplineSet
831 -19 m 4
 1015 -19 1156 36 1219 67 c 5
 1176 211 l 5
 1122 186 1001 136 851 136 c 4
 552.046310736 136 354.729527225 330.4358197 332.16575717 654.5 c 5
 977 654.5 l 5
 977 798.5 l 5
 333.483177993 798.5 l 5
 361.029094156 1108.9155555 550.216564609 1303 839 1303 c 4
 956 1303 1078 1270 1166 1216 c 5
 1227 1344 l 5
 1132 1411 990 1456 823 1456 c 4
 415 1456 135 1171 135 723 c 4
 135 256 428 -19 831 -19 c 4
EndSplineSet
Fore
SplineSet
831 -19 m 0
 1015 -19 1156 36 1219 67 c 1
 1176 211 l 1
 1122 186 1001 136 851 136 c 0
 552.046310736 136 343.729492188 330.435546875 330.166015625 694.5 c 1
 287.25 654.5 l 1
 977 654.5 l 1
 977 798.5 l 1
 284.75 798.5 l 1
 329.483398438 758.5 l 1
 345.029296875 1099.91601562 550.216564609 1303 839 1303 c 0
 956 1303 1078 1270 1166 1216 c 1
 1227 1344 l 1
 1132 1411 990 1456 823 1456 c 0
 415 1456 135 1171 135 723 c 0
 135 256 428 -19 831 -19 c 0
EndSplineSet
EndChar

StartChar: uni0418
Encoding: 184 1048 596
Width: 1573
VWidth: 0
Flags: W
HStem: 0 21G<200 416.514 1190 1373>
VStem: 200 182<169 1437> 1190 183<0 1157.42>
LayerCount: 2
UndoRedoHistory
Layer: 1
Undoes
EndUndoes
Redoes
EndRedoes
EndUndoRedoHistory
Fore
SplineSet
1373 0 m 1
 1190 0 l 1
 1190 713 l 1
 1208 1271 l 1
 1253 1258 l 1
 403 0 l 1
 200 0 l 1
 200 1437 l 1
 382 1437 l 1
 382 660 l 1
 369 166 l 1
 324 169 l 1
 1177 1437 l 1
 1373 1437 l 1
 1373 0 l 1
EndSplineSet
EndChar

StartChar: uni0416
Encoding: 182 1046 597
Width: 2014
VWidth: 0
Flags: W
LayerCount: 2
UndoRedoHistory
Layer: 0
Undoes
EndUndoes
Redoes
EndRedoes
EndUndoRedoHistory
UndoRedoHistory
Layer: 1
Undoes
EndUndoes
Redoes
EndRedoes
EndUndoRedoHistory
Fore
SplineSet
1104 0 m 1
 1104 647 l 1
 1055 534 l 1
 1284 742 l 1
 1199 748 l 1
 1774 0 l 1
 2000 0 l 1
 1339 853 l 1
 1339 752 l 1
 1969 1437 l 1
 1743 1437 l 1
 1052 701 l 1
 1104 691 l 1
 1104 1437 l 1
 909 1437 l 1
 910 691 l 1
 962 701 l 1
 271 1437 l 1
 45 1437 l 1
 675 752 l 1
 675 853 l 1
 14 0 l 1
 240 0 l 1
 815 748 l 1
 730 742 l 1
 959 534 l 1
 910 647 l 1
 910 0 l 1
 1104 0 l 1
EndSplineSet
EndChar

StartChar: uni042F
Encoding: 207 1071 598
Width: 1414
VWidth: 0
Flags: W
HStem: 0 21G<110 339.371 1020 1214> 672 140<526.314 1020> 1293 144<450.784 1020>
VStem: 168 194<892.665 1213.47> 1020 194<0 672 812 1293>
LayerCount: 2
UndoRedoHistory
Layer: 1
Undoes
EndUndoes
Redoes
EndRedoes
EndUndoRedoHistory
Fore
SplineSet
1214 0 m 1
 1020 0 l 1
 1020 718 l 1
 1081 672 l 1
 526 672 l 1
 634 728 l 1
 516 442 l 1
 331 0 l 1
 110 0 l 1
 333 498 l 1
 451 775 l 1
 463 687 l 1
 281 729 168 831 168 1061 c 4
 168 1327 324 1437 630 1437 c 2
 1214 1437 l 1
 1214 0 l 1
1020 755 m 1
 1020 1349 l 1
 1080 1293 l 1
 635 1293 l 2
 436 1293 362 1211 362 1060 c 4
 362 882 434 812 662 812 c 2
 1081 812 l 1
 1020 755 l 1
EndSplineSet
EndChar

StartChar: uni042D
Encoding: 205 1069 599
Width: 1309
VWidth: 0
Flags: W
HStem: -19 155<260.604 728.106> 654.5 144<385 1031.83> 1303 153<283.589 735.351>
LayerCount: 2
Fore
SplineSet
531 -19 m 0
 347 -19 206 36 143 67 c 1
 186 211 l 1
 240 186 361 136 511 136 c 0
 809.954101562 136 1018.27050781 330.435546875 1031.83398438 694.5 c 1
 1074.75 654.5 l 1
 385 654.5 l 1
 385 798.5 l 1
 1077.25 798.5 l 1
 1032.51660156 758.5 l 1
 1016.97070312 1099.91601562 811.783203125 1303 523 1303 c 0
 406 1303 284 1270 196 1216 c 1
 135 1344 l 1
 230 1411 372 1456 539 1456 c 0
 947 1456 1227 1171 1227 723 c 0
 1227 256 934 -19 531 -19 c 0
EndSplineSet
EndChar

StartChar: uni0409
Encoding: 169 1033 600
Width: 2319
VWidth: 0
Flags: W
HStem: -20 156<143 317.697> 0 148<1749 1962.98> 667 141<1751 1976.68>
VStem: 415 194<242.946 451> 2070 189<244.176 577.609>
LayerCount: 2
UndoRedoHistory
Layer: 0
Undoes
EndUndoes
Redoes
EndRedoes
EndUndoRedoHistory
UndoRedoHistory
Layer: 1
Undoes
EndUndoes
Redoes
EndRedoes
EndUndoRedoHistory
Fore
SplineSet
609 1347 m 1xb8
 542 1293 l 1
 1351 1293 l 1
 1281 1347 l 1
 1281 0 l 1
 1760 0 l 2x78
 2114 0 2259 155 2259 408 c 0
 2259 657 2121 808 1759 808 c 2
 1415 808 l 1
 1474 753 l 1
 1476 1436 l 1
 415 1436 l 1
 415 451 l 2
 415 271.002929688 369 136 143 136 c 2
 48 136 l 1
 60 -20 l 1
 174 -20 l 2
 484 -20 609 167.000976562 609 441 c 2
 609 1347 l 1xb8
1475 68 m 1
 1475 728 l 1
 1415 667 l 1
 1751 667 l 2
 1982 667 2070 601 2070 408 c 0
 2070 216 1969 148 1749 148 c 2
 1406 148 l 1
 1475 68 l 1
EndSplineSet
EndChar

StartChar: uni042E
Encoding: 206 1070 602
Width: 2163
VWidth: 0
Flags: W
HStem: -19 153<1119.27 1553.06> 1302 154<1127.43 1550.31>
VStem: 200 642<373 759.742> 1834 194<442.891 986.482>
LayerCount: 2
Back
SplineSet
1378 -19 m 4
 1816 -19 2066 274 2066 710 c 4
 2066 1162 1806 1456 1379 1456 c 4
 977.498348684 1456 724.913759876 1206.09320545 689.337477807 810 c 5
 755 810 l 5
 334 810 l 5
 394 760.299804688 l 5
 394 1437 l 5
 200 1437 l 5
 200 0 l 5
 394 0 l 5
 394 720.299804688 l 5
 334 667 l 5
 759 667 l 5
 685.843133166 667 l 5
 702.034777768 249.089391568 950.809943258 -19 1378 -19 c 4
1377 134 m 4
 1043 134 880 373 880 711 c 4
 880 1063 1052 1302 1378 1302 c 4
 1704 1302 1872 1061 1872 711 c 4
 1872 373 1711 134 1377 134 c 4
EndSplineSet
UndoRedoHistory
Layer: 1
Undoes
EndUndoes
Redoes
EndRedoes
EndUndoRedoHistory
Fore
SplineSet
1340 -19 m 0
 1778 -19 2028 274 2028 710 c 0
 2028 1162 1768 1456 1341 1456 c 0
 939.498046875 1456 673.9140625 1198.09277344 651.337890625 770 c 1
 717 810 l 1
 334 810 l 1
 394 760.299804688 l 1
 394 1437 l 1
 200 1437 l 1
 200 0 l 1
 394 0 l 1
 394 720.299804688 l 1
 334 667 l 1
 721 667 l 1
 647.842773438 707 l 1
 655.03515625 259.08984375 912.809570312 -19 1340 -19 c 0
1339 134 m 0
 1005 134 842 373 842 711 c 0
 842 1063 1014 1302 1340 1302 c 0
 1666 1302 1834 1061 1834 711 c 0
 1834 373 1673 134 1339 134 c 0
EndSplineSet
EndChar

StartChar: uni045B
Encoding: 251 1115 603
Width: 1205
VWidth: 0
Flags: W
HStem: 615.053 144.289<395.741 793.577>
VStem: 867 180<333 533.982>
LayerCount: 2
UndoRedoHistory
Layer: 0
Undoes
EndUndoes
Redoes
EndRedoes
EndUndoRedoHistory
Back
SplineSet
533 -12 m 4
 613 -12 680 5 693 7 c 5
 693 130 l 5
 687 129 627 121 565 121 c 4
 447 121 391 157 391 300 c 6
 391 1468 l 5
 210 1455 l 5
 210 316 l 6
 210 62 338 -12 533 -12 c 4
EndSplineSet
UndoRedoHistory
Layer: 1
Undoes
EndUndoes
Redoes
EndRedoes
EndUndoRedoHistory
Fore
SplineSet
86 932 m 1
 866 932 l 1
 866 1060 l 1
 86 1060 l 1
 86 932 l 1
391 1468 m 1
 211 1455 l 1
 211 0 l 1
 391 0 l 1
 391 576 l 1
 491.36328125 598.317382812 578.510742188 615.052734375 649.786132812 615.052734375 c 0
 787.536132812 615.052734375 867 552.54296875 867 347 c 6
 867 0 l 5
 1047 0 l 1
 1047 333 l 2
 1047 651.497070312 895.880859375 759.341796875 675.862304688 759.341796875 c 0
 589.80859375 759.341796875 493.21484375 742.844726562 391 716 c 1
 391 1468 l 1
EndSplineSet
EndChar

StartChar: uni0459
Encoding: 249 1113 604
Width: 1594
VWidth: 0
Flags: W
HStem: 0 132<1215 1352.06> 504 127<1215 1347.23>
VStem: 1408 150<188.799 449.303>
LayerCount: 2
UndoRedoHistory
Layer: 0
Undoes
EndUndoes
Redoes
EndRedoes
EndUndoRedoHistory
UndoRedoHistory
Layer: 1
Undoes
EndUndoes
Redoes
EndRedoes
EndUndoRedoHistory
Fore
SplineSet
170 0 m 1
 347 0 l 1
 347 923 l 1
 819 923 l 1
 819 0 l 1
 1220 0 l 2
 1447 0 1558 147 1558 317 c 0
 1558 498 1454 631 1221 631 c 2
 994 631 l 1
 994 1061 l 1
 170 1061 l 1
 170 0 l 1
994 132 m 1
 994 504 l 1
 1215 504 l 2
 1358 504 1408 419 1408 320 c 0
 1408 221 1356 132 1215 132 c 2
 994 132 l 1
EndSplineSet
EndChar

StartChar: uni0412
Encoding: 178 1042 605
Width: 1367
VWidth: 0
Flags: W
HStem: 0 147<717 948.767> 688 135<670 886.569> 1293 144<659 924.356>
VStem: 1018 186<907.363 1207.1> 1067 194<254.082 575.516>
LayerCount: 2
UndoRedoHistory
Layer: 1
Undoes
EndUndoes
Redoes
EndRedoes
EndUndoRedoHistory
Fore
SplineSet
200 0 m 5xf0
 749 0 l 6
 1091 0 1261 155 1261 408 c 4xe8
 1261 627 1115 743 892 782 c 5
 892 734 l 5
 1130 797 1204 913 1204 1083 c 4
 1204 1331 1028 1437 665 1437 c 6
 200 1437 l 5
 200 0 l 5xf0
342 147 m 5
 394 93 l 5
 394 741 l 5
 341 688 l 5
 670 688 l 6
 940 688 1067 619 1067 415 c 4
 1067 224 960 147 717 147 c 6
 342 147 l 5
340 823 m 5
 394 778 l 5
 394 1345 l 5
 342 1293 l 5
 659 1293 l 6
 903 1293 1018 1247 1018 1059 c 4xf0
 1018 871 901 823 715 823 c 6
 340 823 l 5
EndSplineSet
EndChar

StartChar: uni0413
Encoding: 179 1043 606
Width: 1162
VWidth: 0
Flags: W
LayerCount: 2
UndoRedoHistory
Layer: 1
Undoes
EndUndoes
Redoes
EndRedoes
EndUndoRedoHistory
Fore
SplineSet
200 0 m 5
 394 0 l 5
 394 1347 l 5
 327 1293 l 5
 1106 1293 l 5
 1120 1436 l 5
 200 1436 l 5
 200 0 l 5
EndSplineSet
EndChar

StartChar: uni0426
Encoding: 198 1062 607
Width: 1524
VWidth: 0
Flags: W
LayerCount: 2
UndoRedoHistory
Layer: 1
Undoes
EndUndoes
Redoes
EndRedoes
EndUndoRedoHistory
Fore
SplineSet
200 0 m 1
 394 0 l 1
 394 1347 l 1
 327 1293 l 1
 1200 1293 l 1
 1130 1347 l 1
 1130 0 l 1
 1324 0 l 1
 1324 1436 l 1
 200 1436 l 1
 200 0 l 1
EndSplineSet
EndChar

StartChar: uni0417
Encoding: 183 1047 608
Width: 1209
VWidth: 0
Flags: W
HStem: -19 151<373.508 798.286> 673 156<595 764.298> 1302 154<354.072 770.217>
VStem: 869 180<928.442 1214.9> 918 179<248.492 540.83>
LayerCount: 2
Back
SplineSet
469 792 m 5
 518 634 l 5
 757 722 l 6
 937 789 1050 879 1050 1078 c 4
 1050 1356 814 1456 569 1456 c 4
 404 1456 252 1398 163 1336 c 5
 231 1200 l 5
 287 1229 415 1302 572 1302 c 4
 727 1302 870 1250 870 1087 c 4
 870 971 826 928 698 879 c 5
 469 792 l 5
604 -19 m 4
 880 -19 1088 95 1098 380 c 4
 1106 625 959 713 744 792 c 5
 515 879 l 5
 456 722 l 5
 695 634 l 5
 865 569 923 514 919 379 c 4
 913 203 806 134 611 134 c 4
 436 134 302 194 211 259 c 5
 147 117 l 5
 226 63 365 -19 604 -19 c 4
EndSplineSet
UndoRedoHistory
Layer: 1
Undoes
EndUndoes
Redoes
EndRedoes
EndUndoRedoHistory
Fore
SplineSet
603 -19 m 4xe8
 885 -19 1097 101 1097 401 c 4xe8
 1097 595 1003 682 845 752 c 5
 978 816 1049 910 1049 1078 c 4
 1049 1356 813 1456 568 1456 c 4
 403 1456 251 1398 162 1336 c 5
 230 1200 l 5
 286 1229 414 1302 571 1302 c 4
 726 1302 869 1250 869 1087 c 4xf0
 869 933 779 829 595 829 c 6
 404 829 l 5
 405 673 l 5
 595 674 l 6
 808 675 918 536 918 397 c 4
 918 208 775 132 607 132 c 4
 471 132 319 181 210 259 c 5
 146 117 l 5
 225 63 364 -19 603 -19 c 4xe8
EndSplineSet
EndChar

StartChar: uni0437
Encoding: 215 1079 609
Width: 1115
VWidth: 0
Flags: W
HStem: -19 137<322.734 734.029> 492 123<567 722.863> 944 138<307.053 730.388>
VStem: 782 166<671.713 890.911> 813 176<189.793 420.54>
LayerCount: 2
UndoRedoHistory
Layer: 0
Undoes
EndUndoes
Redoes
EndRedoes
EndUndoRedoHistory
Back
SplineSet
530.580078125 119 m 4
 318.580078125 119 207.580078125 288 207.580078125 528 c 4
 207.580078125 773 319.580078125 944 530.580078125 944 c 4
 746.580078125 944 852.580078125 773 852.580078125 528 c 4
 852.580078125 288 747.580078125 119 530.580078125 119 c 4
530.580078125 -19 m 4
 831.580078125 -19 1032.58007812 209 1032.58007812 530 c 4
 1032.58007812 858 843.580078125 1082 530.580078125 1082 c 4
 218.580078125 1082 28.580078125 859 28.580078125 530 c 4
 28.580078125 209 223.580078125 -19 530.580078125 -19 c 4
EndSplineSet
UndoRedoHistory
Layer: 1
Undoes
EndUndoes
Redoes
EndRedoes
EndUndoRedoHistory
Fore
SplineSet
526 944 m 0xf0
 668.679093853 944 782 918.870637766 782 783 c 0xf0
 782 685 712 616 567 616 c 2
 383 615 l 1
 383 492 l 1
 568 492 l 2
 744 492 813 402 813 303 c 0
 813 170.164884907 692.774549044 118 554 118 c 0
 434 118 299 158 215 218 c 1
 160 82 l 1
 228 42 347 -19 553 -19 c 0
 794 -19 989 77 989 289 c 0xe8
 989 436 927 505 790 557 c 1
 898 602 948 674 948 785 c 0
 948 1010.86225635 755.743569172 1082 537 1082 c 0
 395 1082 251 1040 174 994 c 1
 232 869 l 1
 280 890 391 944 526 944 c 0xf0
EndSplineSet
EndChar

